# Wavefront OBJ
# Created by fragMOTION 1.3.7
# http://www.fragmosoft.com

mtllib ButtonCode.mtl
# 89 vertices
v 1.38564 2.35135 0.002834
v -1.37837 -2.69338 0.002834
v -1.37837 2.35135 0.002834
v 1.0599 1.87995 -1.48102
v -1.37837 2.35135 -1.00962
v -1.05263 1.87995 -1.48102
v -1.37837 -2.69338 -1.00962
v 1.38564 -2.69338 -1.00962
v 1.38564 -2.69338 0.002834
v 1.0599 1.87995 -1.26513
v 0.003637 0.164337 -1.26513
v 1.0599 0.164337 -1.26513
v -1.05263 -2.22197 -1.48102
v -1.05263 -1.93955 -1.48102
v 0.003637 -2.22197 -1.48102
v 1.38564 2.35135 -1.00962
v 1.0599 -2.22197 -1.48102
v 1.0599 -1.93955 -1.48102
v -1.05263 0.164337 -1.48102
v -0.524496 -1.93955 -1.48102
v 1.0599 -0.742324 -1.48102
v 0.968088 -0.228275 -1.62407
v 0.968088 -0.657759 -1.62407
v -1.05263 -1.34094 -1.48102
v -0.96422 -1.85011 -1.62407
v -0.96422 -1.42062 -1.62407
v -1.05263 0.164337 -1.26513
v -1.05263 1.87995 -1.26513
v 0.003637 0.164337 -1.48102
v 0.003637 -1.34094 -1.48102
v -0.440174 -1.4255 -1.62407
v -0.080686 -1.4255 -1.62407
v -1.05263 -0.742324 -1.48102
v -1.05263 -0.143711 -1.48102
v 1.0599 -0.143711 -1.48102
v 1.0599 -1.34094 -1.48102
v 0.971492 -1.42062 -1.62407
v 0.612006 -1.85011 -1.62407
v 0.971492 -1.85011 -1.62407
v 0.979034 -0.822759 -1.62407
v 0.619548 -1.25224 -1.62407
v 0.979034 -1.25224 -1.62407
v 0.608602 -0.657759 -1.62407
v 0.53177 -0.143711 -1.48102
v 0.087958 -0.228275 -1.62407
v 0.447444 -0.228275 -1.62407
v 0.53177 -0.742324 -1.48102
v 0.447444 -0.657759 -1.62407
v 0.003637 -0.742324 -1.48102
v 0.087958 -0.657759 -1.62407
v 0.003637 -0.143711 -1.48102
v 0.087958 -0.826888 -1.62407
v 0.447444 -0.826888 -1.62407
v 0.53177 -1.34094 -1.48102
v 0.447444 -1.25637 -1.62407
v 0.087958 -1.25637 -1.62407
v 0.087958 -1.4255 -1.62407
v 0.447444 -1.4255 -1.62407
v -0.524496 -0.742324 -1.48102
v -0.968305 -0.826888 -1.62407
v -0.608819 -0.826888 -1.62407
v -0.524496 -1.34094 -1.48102
v -0.608819 -1.25637 -1.62407
v -0.968305 -1.25637 -1.62407
v 0.53177 -1.93955 -1.48102
v -0.604734 -1.42062 -1.62407
v 0.003637 -1.93955 -1.48102
v -0.080686 -1.85498 -1.62407
v -0.604734 -1.85011 -1.62407
v -0.96422 -0.233156 -1.62407
v -0.604734 -0.66264 -1.62407
v -0.604734 -0.233156 -1.62407
v 0.447444 -1.85498 -1.62407
v 0.087958 -1.85498 -1.62407
v -0.080686 -0.657759 -1.62407
v -0.440174 -0.657759 -1.62407
v -0.080686 -1.25637 -1.62407
v -0.440174 -1.25637 -1.62407
v -0.524496 -0.143711 -1.48102
v -0.440174 -0.228275 -1.62407
v -0.440174 -1.85498 -1.62407
v -0.440174 -0.826888 -1.62407
v 1.0599 0.164337 -1.48102
v -0.080686 -0.228275 -1.62407
v 0.608602 -0.228275 -1.62407
v -0.080686 -0.826888 -1.62407
v -0.96422 -0.66264 -1.62407
v 0.612006 -1.42062 -1.62407
v 0.619548 -0.822759 -1.62407
# 160 texture vertices
vt -0.735228 0.268234
vt -0.98191 0.021552
vt -0.735228 0.021552
vt -0.360302 0.652554
vt -0.721469 0.691381
vt -0.673219 0.652554
vt -0.97682 0.691381
vt -0.721469 0.275871
vt -0.062561 0.691381
vt -0.312052 0.275871
vt -0.062561 0.275871
vt -0.312052 0.019722
vt -0.721469 0.019722
vt -0.516761 0.511247
vt -0.360302 0.511247
vt -0.673219 0.314699
vt -0.673219 0.337961
vt -0.516761 0.314699
vt -0.312052 0.691381
vt -0.017923 0.70784
vt -0.052044 0.978118
vt -0.017923 0.978118
vt -0.360302 0.314699
vt -0.360302 0.337961
vt -0.673219 0.511247
vt -0.59499 0.337961
vt -0.259192 0.966289
vt -0.196512 0.989512
vt -0.253675 0.989512
vt -0.717241 0.966289
vt -0.65456 0.989512
vt -0.711724 0.989512
vt -0.052044 0.500403
vt -0.052044 0.70784
vt -0.052044 0.365264
vt -0.017923 0.500403
vt -0.017923 0.365264
vt -0.862404 0.900282
vt -0.807105 0.916691
vt -0.858003 0.916501
vt -0.312052 0.94677
vt -0.721469 0.94677
vt -0.673219 0.387265
vt -0.673219 0.43657
vt -0.673219 0.485875
vt -0.360302 0.485875
vt -0.360302 0.43657
vt -0.360302 0.387265
vt -0.365687 0.385767
vt -0.432248 0.343531
vt -0.365687 0.343531
vt -0.365687 0.432861
vt -0.432248 0.390625
vt -0.365687 0.390625
vt -0.365687 0.479956
vt -0.432248 0.43772
vt -0.365687 0.43772
vt -0.147947 0.966289
vt -0.077046 0.989512
vt -0.145267 0.989512
vt -0.828502 0.900409
vt -0.764256 0.916852
vt -0.825065 0.916624
vt -0.96411 0.899902
vt -0.899864 0.916344
vt -0.960673 0.916117
vt -0.922225 0.900059
vt -0.866926 0.916468
vt -0.917824 0.916277
vt -0.896306 0.900155
vt -0.83206 0.916598
vt -0.892869 0.916371
vt -0.802583 0.900506
vt -0.747284 0.916915
vt -0.798182 0.916725
vt -0.438531 0.485875
vt -0.982045 0.899835
vt -0.926746 0.916244
vt -0.977645 0.916053
vt -0.79776 0.966289
vt -0.719871 0.989512
vt -0.795129 0.989512
vt -0.438531 0.337961
vt -0.666935 0.385767
vt -0.600374 0.343531
vt -0.600374 0.385767
vt -0.666935 0.432861
vt -0.600374 0.390625
vt -0.600374 0.432861
vt -0.666935 0.479956
vt -0.600374 0.43772
vt -0.600374 0.479956
vt -0.528476 0.966289
vt -0.453637 0.989512
vt -0.521857 0.989512
vt -0.510477 0.385767
vt -0.443916 0.343531
vt -0.443916 0.385767
vt -0.510477 0.432861
vt -0.443916 0.390625
vt -0.443916 0.432861
vt -0.510477 0.479956
vt -0.443916 0.43772
vt -0.443916 0.479956
vt -0.909005 0.966289
vt -0.86044 0.989512
vt -0.902023 0.989512
vt -0.605995 0.966289
vt -0.535095 0.989512
vt -0.603315 0.989512
vt -0.516761 0.485875
vt -0.516761 0.337961
vt -0.052044 0.230126
vt -0.017923 0.230126
vt -0.986525 0.966289
vt -0.911685 0.989512
vt -0.979906 0.989512
vt -0.59499 0.485875
vt -0.654776 0.966289
vt -0.612977 0.989512
vt -0.017923 0.022689
vt -0.860224 0.966289
vt -0.803277 0.989512
vt -0.522145 0.343531
vt -0.588706 0.385767
vt -0.588706 0.343531
vt -0.522145 0.390625
vt -0.588706 0.432861
vt -0.588706 0.390625
vt -0.522145 0.43772
vt -0.588706 0.479956
vt -0.588706 0.43772
vt -0.450957 0.966289
vt -0.402392 0.989512
vt -0.443974 0.989512
vt -0.402176 0.966289
vt -0.345228 0.989512
vt -0.339711 0.966289
vt -0.261823 0.989512
vt -0.337081 0.989512
vt -0.196728 0.966289
vt -0.154929 0.989512
vt -0.98191 0.268234
vt -0.97682 0.275871
vt -0.432248 0.385767
vt -0.432248 0.432861
vt -0.432248 0.479956
vt -0.070427 0.966289
vt -0.760698 0.900663
vt -0.742762 0.90073
vt -0.666935 0.343531
vt -0.666935 0.390625
vt -0.666935 0.43772
vt -0.510477 0.343531
vt -0.510477 0.390625
vt -0.510477 0.43772
vt -0.052044 0.022689
vt -0.522145 0.385767
vt -0.522145 0.432861
vt -0.522145 0.479956
# 67 normals
vn 0 0 1
vn 0.491307 0.422278 -0.761774
vn -0.419147 0.785132 -0.455943
vn -0.640081 0.275075 -0.717377
vn -1 0 0
vn -0.772234 -0.339815 -0.536824
vn 1 0 0
vn 0.795543 -0.247537 -0.553025
vn 0 -1 0
vn 0 0 -1
vn -0.238423 -0.204925 -0.949295
vn -0.610074 0 -0.792344
vn 0 -0.327441 -0.944872
vn 0.649986 0.608766 -0.454886
vn 0.707107 -0.707107 0
vn 0.238424 -0.204925 -0.949294
vn 0.610076 0 -0.792343
vn 0.851513 0 -0.524334
vn 0.681502 0.348549 -0.643482
vn 0.841562 0 -0.54016
vn -0.85429 0 -0.519797
vn -0.687986 -0.342877 -0.639617
vn -0.850642 0 -0.525745
vn 0.894427 0.447214 0
vn 0 1 0
vn 0.447214 0.894427 0
vn 0 0.860821 -0.508908
vn -0.822693 0 -0.568486
vn -0.464496 0 -0.885575
vn 0.464498 0 -0.885574
vn 0.822694 0 -0.568484
vn 0.861449 0 -0.507844
vn 0 -0.860821 -0.508907
vn -0.861464 0 -0.507819
vn 0 0.864474 -0.502678
vn 0 0.865142 -0.501526
vn 0.865069 0 -0.501652
vn -0.857895 0 -0.513825
vn 0 0.869401 -0.494108
vn 0 0.873595 -0.486653
vn 0.872157 0 -0.489226
vn 0 -0.865143 -0.501526
vn 0 0.852253 -0.52313
vn -0.343993 0.685753 -0.641414
vn 0 0.847881 -0.530187
vn 0 -0.856567 -0.516036
vn -0.707107 0.707107 0
vn -0.343993 -0.685753 -0.641414
vn 0 -0.847881 -0.530186
vn -0.880962 0 -0.473187
vn 0.868635 0 -0.495452
vn 0 -0.873595 -0.486653
vn -0.687987 0.342876 -0.639617
vn -0.865695 0 -0.500572
vn -0.872162 0 -0.489218
vn 0 -0.852253 -0.523129
vn 0.343993 -0.685753 -0.641413
vn 0.687987 -0.342877 -0.639617
vn 0.850643 0 -0.525744
vn 0 0.871644 -0.49014
vn -0.862183 0 -0.506598
vn -0.852318 0 -0.523024
vn 0 -0.85357 -0.520979
vn 0 -0.84988 -0.526976
vn 0.864041 0 -0.503422
vn 0.87052 0 -0.492133
vn 0.340751 0.697097 -0.630828
usemtl MatD3D01
g Group
s off
f 1/1/1 3/3/1 2/2/1
f 4/4/2 6/6/4 5/5/3
f 3/7/5 5/5/3 7/8/6
f 1/9/7 9/11/7 8/10/8
f 9/12/9 2/13/9 7/8/6
f 10/4/10 12/15/10 11/14/10
f 13/16/11 7/8/6 14/17/12
f 7/8/6 13/16/11 15/18/13
f 4/4/2 16/19/14 8/10/8
f 6/20/15 4/22/9 10/21/9
f 17/23/16 18/24/17 8/10/8
f 6/6/4 19/25/12 7/8/6
f 13/16/11 14/17/12 20/26/10
f 21/27/18 23/29/20 22/28/19
f 8/10/8 7/8/6 15/18/13
f 24/30/21 26/32/23 25/31/22
f 6/20/15 28/34/15 27/33/24
f 11/35/25 29/37/25 19/36/26
f 30/38/10 32/40/27 31/39/27
f 5/5/3 3/42/25 1/41/25
f 24/43/28 14/17/12 7/8/6
f 33/44/28 24/43/28 7/8/6
f 34/45/29 33/44/28 7/8/6
f 8/10/8 21/47/31 35/46/30
f 8/10/8 36/48/31 21/47/31
f 8/10/8 18/24/17 36/48/31
f 37/49/10 39/51/10 38/50/10
f 40/52/10 42/54/10 41/53/10
f 22/55/10 23/57/10 43/56/10
f 44/58/27 46/60/27 45/59/27
f 47/61/32 48/63/32 46/62/32
f 49/38/10 50/40/33 48/39/33
f 51/64/34 45/66/34 50/65/34
f 47/67/35 53/69/27 52/68/27
f 54/70/32 55/72/32 53/71/32
f 30/38/10 56/40/33 55/39/33
f 49/70/34 52/72/34 56/71/34
f 54/67/36 58/69/27 57/68/27
f 59/73/27 61/75/27 60/74/27
f 62/70/37 63/72/32 61/71/32
f 35/46/30 44/76/10 29/14/10
f 24/77/33 64/79/33 63/78/33
f 17/23/16 8/10/8 15/18/13
f 33/80/38 60/82/34 64/81/34
f 17/23/16 15/18/13 65/83/10
f 62/73/39 66/75/40 26/74/40
f 67/64/32 68/66/32 32/65/32
f 20/64/41 69/66/41 66/65/41
f 26/84/10 66/86/10 69/85/10
f 60/87/10 61/89/10 63/88/10
f 70/90/10 72/92/10 71/91/10
f 65/64/32 73/66/32 58/65/32
f 67/93/33 74/95/33 73/94/33
f 30/61/34 57/63/34 74/62/34
f 59/67/42 76/69/33 75/68/33
f 62/67/33 78/69/33 77/68/33
f 57/96/10 58/98/10 73/97/10
f 52/99/10 53/101/10 55/100/10
f 45/102/10 46/104/10 48/103/10
f 79/64/34 80/66/34 76/65/34
f 79/105/43 72/107/45 70/106/44
f 20/108/46 81/110/33 68/109/33
f 51/111/10 29/14/10 44/76/10
f 47/73/33 43/75/33 23/74/33
f 59/70/34 82/72/34 78/71/34
f 67/112/10 65/83/10 15/18/13
f 12/113/47 83/114/47 29/37/25
f 34/45/29 19/25/12 29/14/10
f 35/46/30 83/15/17 8/10/8
f 7/8/6 19/25/12 34/45/29
f 51/115/27 84/117/27 80/116/27
f 49/61/32 75/63/32 84/62/32
f 51/111/10 79/118/10 29/14/10
f 14/119/48 25/31/22 69/120/49
f 44/64/50 85/66/50 43/65/50
f 49/38/10 86/40/27 82/39/27
f 67/112/10 15/18/13 20/26/10
f 59/61/51 71/63/41 72/62/41
f 33/77/52 87/79/52 71/78/52
f 4/121/5 83/114/47 12/113/47
f 34/122/53 70/106/44 87/123/23
f 62/61/34 31/63/34 81/62/34
f 30/70/32 77/72/32 86/71/32
f 68/124/10 81/126/10 31/125/10
f 77/127/10 78/129/10 82/128/10
f 75/130/10 76/132/10 80/131/10
f 36/77/40 37/79/40 88/78/40
f 54/61/54 88/63/55 38/62/55
f 65/133/56 38/135/49 39/134/57
f 18/136/58 39/134/57 37/137/59
f 21/77/60 40/79/60 89/78/60
f 47/70/61 89/72/62 41/71/62
f 54/73/63 41/75/64 42/74/64
f 36/138/65 42/140/66 40/139/66
f 35/141/67 22/28/19 85/142/27
f 9/143/1 1/1/1 2/2/1
f 16/19/14 4/4/2 5/5/3
f 2/144/5 3/7/5 7/8/6
f 16/19/14 1/9/7 8/10/8
f 8/10/8 9/12/9 7/8/6
f 28/6/10 10/4/10 27/25/10
f 27/25/10 10/4/10 11/14/10
f 83/15/17 4/4/2 8/10/8
f 28/34/15 6/20/15 10/21/9
f 5/5/3 6/6/4 7/8/6
f 15/18/13 13/16/11 20/26/10
f 35/141/67 21/27/18 22/28/19
f 14/119/48 24/30/21 25/31/22
f 19/36/26 6/20/15 27/33/24
f 27/33/24 11/35/25 19/36/26
f 62/73/39 30/38/10 31/39/27
f 16/19/14 5/5/3 1/41/25
f 88/145/10 37/49/10 38/50/10
f 89/146/10 40/52/10 41/53/10
f 85/147/10 22/55/10 43/56/10
f 51/148/27 44/58/27 45/59/27
f 44/149/32 47/61/32 46/62/32
f 47/73/33 49/38/10 48/39/33
f 49/70/34 51/64/34 50/65/34
f 49/38/10 47/67/35 52/68/27
f 47/61/32 54/70/32 53/71/32
f 54/73/63 30/38/10 55/39/33
f 30/61/34 49/70/34 56/71/34
f 30/38/10 54/67/36 57/68/27
f 33/150/27 59/73/27 60/74/27
f 59/61/51 62/70/37 61/71/32
f 83/15/17 35/46/30 29/14/10
f 62/67/33 24/77/33 63/78/33
f 24/30/21 33/80/38 64/81/34
f 18/24/17 17/23/16 65/83/10
f 24/150/40 62/73/39 26/74/40
f 30/70/32 67/64/32 32/65/32
f 62/70/37 20/64/41 66/65/41
f 25/151/10 26/84/10 69/85/10
f 64/152/10 60/87/10 63/88/10
f 87/153/10 70/90/10 71/91/10
f 54/70/32 65/64/32 58/65/32
f 65/133/56 67/93/33 73/94/33
f 67/149/34 30/61/34 74/62/34
f 49/38/10 59/67/42 75/68/33
f 30/38/10 62/67/33 77/68/33
f 74/154/10 57/96/10 73/97/10
f 56/155/10 52/99/10 55/100/10
f 50/156/10 45/102/10 48/103/10
f 59/70/34 79/64/34 76/65/34
f 34/122/53 79/105/43 70/106/44
f 67/93/33 20/108/46 68/109/33
f 21/150/33 47/73/33 23/74/33
f 62/61/34 59/70/34 78/71/34
f 11/35/25 12/113/47 29/37/25
f 79/118/10 34/45/29 29/14/10
f 79/105/43 51/115/27 80/116/27
f 51/149/32 49/61/32 84/62/32
f 20/108/46 14/119/48 69/120/49
f 47/70/61 44/64/50 43/65/50
f 59/73/27 49/38/10 82/39/27
f 79/149/41 59/61/51 72/62/41
f 59/67/42 33/77/52 71/78/52
f 10/157/5 4/121/5 12/113/47
f 33/80/38 34/122/53 87/123/23
f 20/149/34 62/61/34 81/62/34
f 49/61/32 30/70/32 86/71/32
f 32/158/10 68/124/10 31/125/10
f 86/159/10 77/127/10 82/128/10
f 84/160/10 75/130/10 80/131/10
f 54/67/36 36/77/40 88/78/40
f 65/149/55 54/61/54 38/62/55
f 18/136/58 65/133/56 39/134/57
f 36/138/65 18/136/58 37/137/59
f 47/67/35 21/77/60 89/78/60
f 54/61/54 47/70/61 41/71/62
f 36/150/64 54/73/63 42/74/64
f 21/27/18 36/138/65 40/139/66
f 44/58/27 35/141/67 85/142/27
