# Wavefront OBJ
# Created by fragMOTION 1.3.7
# http://www.fragmosoft.com

mtllib ButtonKeycard.mtl
# 59 vertices
v -1.37941 3.37017 -0.003091
v -1.37941 -1.67456 -0.00309
v -1.37941 -1.67456 -1.01555
v 1.38461 -1.67456 -0.003092
v 1.38461 -1.67456 -1.01555
v 1.38461 3.37017 -0.003093
v -1.37941 3.37017 -1.01555
v 1.38461 3.37017 -1.01555
v 1.05445 0.876111 -1.48906
v 0.002599 1.18316 -1.48695
v 0.530733 0.876111 -1.48906
v 1.05887 1.18316 -1.48695
v 0.002598 -1.20316 -1.48695
v -1.05592 0.876112 -1.48906
v -1.05367 1.18316 -1.48695
v 1.05445 -0.915761 -1.48906
v 1.05445 -0.322122 -1.48906
v 1.05887 -1.20316 -1.48695
v -1.05367 1.18316 -1.27105
v 0.002599 1.18316 -1.27105
v -1.05367 2.89877 -1.48695
v 1.05887 2.89877 -1.48695
v 1.05886 1.18316 -1.27105
v -1.05367 2.89877 -1.27105
v 1.05887 2.89877 -1.27105
v -1.05592 0.276492 -1.48906
v 0.530733 -0.915761 -1.48906
v -1.05592 -0.915761 -1.48906
v -1.05367 -1.20316 -1.48695
v -0.525536 -0.915761 -1.48906
v 0.002598 -0.915761 -1.48906
v -1.05592 -0.322121 -1.48906
v 0.002599 0.876111 -1.48906
v 1.05445 0.276492 -1.48906
v -0.525536 0.876111 -1.48906
v 0.67766 0.876111 -1.48906
v 0.677661 0.519979 -1.4909
v 1.05445 0.51998 -1.48906
v -0.683586 -0.915761 -1.48906
v -0.683586 -0.552164 -1.4909
v -1.05592 -0.552163 -1.48906
v 0.677661 -0.915761 -1.48906
v 0.67766 -0.552164 -1.4909
v -0.683586 0.876111 -1.48906
v -0.683586 0.519979 -1.4909
v 0.674272 -0.042466 -1.49152
v -0.682161 -0.042466 -1.49152
v -0.682161 0.007543 -1.49152
v 0.674272 0.007543 -1.49152
v 1.05445 0.006244 -1.48906
v -1.05592 -0.038427 -1.48906
v 1.05445 -0.038427 -1.48906
v -1.05592 0.006244 -1.48906
v -1.05592 0.51998 -1.48906
v 1.05445 -0.552163 -1.48906
v 0.670884 0.008838 -1.15662
v -0.680726 0.008839 -1.15662
v -0.680726 -0.046505 -1.15662
v 0.670884 -0.046505 -1.15662
# 78 texture vertices
vt -0.062561 0.691381
vt -0.062561 0.275871
vt -0.312052 0.275871
vt -0.312052 0.019722
vt -0.721469 0.019722
vt -0.721469 0.275871
vt -0.98191 0.268234
vt -0.735228 0.268234
vt -0.98191 0.021552
vt -0.97682 0.275871
vt -0.97682 0.691381
vt -0.312052 0.691381
vt -0.721469 0.691381
vt -0.735228 0.021552
vt -0.312052 0.94677
vt -0.721469 0.94677
vt -0.673219 0.485875
vt -0.516761 0.511247
vt -0.59499 0.485875
vt -0.673219 0.511247
vt -0.516761 0.314699
vt -0.360302 0.485875
vt -0.360302 0.511247
vt -0.673219 0.337961
vt -0.673219 0.387265
vt -0.673219 0.314699
vt -0.052044 0.230126
vt -0.017923 0.365264
vt -0.052044 0.365264
vt -0.360302 0.652554
vt -0.673219 0.652554
vt -0.017923 0.500403
vt -0.017923 0.70784
vt -0.052044 0.500403
vt -0.052044 0.978118
vt -0.052044 0.70784
vt -0.017923 0.978118
vt -0.017923 0.022689
vt -0.017923 0.230126
vt -0.052044 0.022689
vt -0.360302 0.43657
vt -0.59499 0.337961
vt -0.360302 0.337961
vt -0.360302 0.314699
vt -0.438531 0.337961
vt -0.516761 0.337961
vt -0.360302 0.387265
vt -0.516761 0.485875
vt -0.673219 0.43657
vt -0.438531 0.485875
vt 0.57845 -0.061106
vt 0.57845 -0.108521
vt 0.628309 -0.108521
vt 0.398321 -0.299677
vt 0.398321 -0.251267
vt 0.349051 -0.251267
vt 0.57845 -0.299677
vt 0.57845 -0.251267
vt 0.398321 -0.061106
vt 0.398321 -0.108521
vt 0.578002 -0.183405
vt 0.398509 -0.183405
vt 0.398509 -0.176747
vt 0.578002 -0.176747
vt 0.628309 -0.17692
vt 0.349051 -0.182868
vt 0.628309 -0.182868
vt 0.349051 -0.17692
vt 0.349051 -0.061106
vt 0.628309 -0.299677
vt 0.628309 -0.061106
vt 0.349051 -0.299677
vt 0.349051 -0.108521
vt 0.628309 -0.251267
vt 0.929249 -0.611173
vt 0.69852 -0.382317
vt 0.698765 -0.611173
vt 0.929827 -0.382317
# 61 normals
vn -1 0 0
vn -0.798272 -0.247643 -0.549031
vn 0 -1 0
vn 0.769301 -0.339732 -0.541072
vn 1e-006 0 1
vn 1 0 0
vn -0.649986 0.608767 -0.454886
vn 0.419147 0.785134 -0.45594
vn 0 1 0
vn 0.999982 -0.005969 0
vn -8e-006 -3e-006 -1
vn -0.502857 -0.864369 0
vn 0.599308 -0.000458 -0.800518
vn -1e-006 -0.327443 -0.944871
vn -0.999989 0.004659 0
vn -0.623373 0.005983 -0.781901
vn 0.999997 0.002328 0
vn 0.999999 0.001156 0
vn 0.238938 -0.204727 -0.949208
vn 0.707107 0.707107 5e-006
vn -0.491308 0.42228 -0.761771
vn 0.640084 0.275077 -0.717374
vn -0.447213 0.894428 -1e-006
vn -0.707106 -0.707107 -1e-006
vn -0.894427 0.447214 -2e-006
vn -0.999999 -0.001143 0
vn -0.478158 -0.878274 0
vn -0.999956 -0.00934 0
vn -0.235368 -0.209419 -0.949076
vn 0.477934 -0.878396 0
vn -0.999999 0.001132 0
vn -0.196116 0.980581 0
vn 0.999999 -0.001166 0
vn 0.502357 -0.86466 0
vn 0.686885 0.726766 0
vn 1e-006 0.000609 -1
vn 0.713914 0.700233 0
vn -0.698614 -0.715499 0
vn 0 -0.000612 -1
vn -0.723327 -0.690505 0
vn 1 0.000382 0
vn 0.000862 -0.001136 -0.999999
vn -0.000871 0.001148 -0.999999
vn 0.001101 -0.000813 -0.999999
vn -0.000835 -0.000612 -0.999999
vn -0.001114 0.00081 -0.999999
vn 0.000823 0.000609 -0.999999
vn 0.971375 -0.237552 0
vn -0.971942 0.235222 0
vn -0.690736 0.723107 0
vn 0.694803 -0.7192 0
vn 0.001083 0.999999 0
vn 0.001106 -0.999999 0
vn -0.408072 -0.816177 -0.409063
vn 0.447212 -0.894427 0.001544
vn 0.665967 -0.332985 -0.667539
vn -0.447213 0.894406 0.006263
vn 0.409607 0.819164 -0.401487
vn 0.894437 0.44719 0.001561
vn -0.665444 0.332714 -0.668196
vn -0.894395 -0.447217 -0.007319
usemtl MatD3D01
g Mesh
s off
f 1/1/1 3/3/2 2/2/1
f 2/4/3 5/6/4 4/5/3
f 2/7/5 4/9/5 1/8/5
f 4/10/6 5/6/4 6/11/6
f 7/12/7 3/3/2 1/1/1
f 3/3/2 5/6/4 2/4/3
f 8/13/8 6/11/6 5/6/4
f 1/8/5 4/9/5 6/14/5
f 1/15/9 6/16/9 8/13/8
f 9/17/10 11/19/12 10/18/11
f 9/17/10 12/20/13 5/6/4
f 12/20/13 9/17/10 10/18/11
f 8/13/8 7/12/7 1/15/9
f 13/21/14 5/6/4 3/3/2
f 14/22/15 3/3/2 15/23/16
f 16/24/17 17/25/18 5/6/4
f 18/26/19 5/6/4 13/21/14
f 19/27/20 20/29/9 10/28/9
f 21/30/21 15/23/16 3/3/2
f 22/31/22 5/6/4 12/20/13
f 20/29/9 12/32/23 10/28/9
f 22/33/24 12/32/23 23/34/25
f 22/33/24 25/36/24 24/35/3
f 21/37/3 22/33/24 24/35/3
f 21/38/6 19/27/20 15/39/20
f 25/36/24 22/33/24 23/34/25
f 25/31/11 23/20/11 24/30/11
f 24/30/11 20/18/11 19/23/11
f 24/40/6 19/27/20 21/38/6
f 26/41/26 3/3/2 14/22/15
f 21/30/21 3/3/2 7/12/7
f 21/30/21 7/12/7 8/13/8
f 22/31/22 21/30/21 8/13/8
f 22/31/22 8/13/8 5/6/4
f 16/24/17 5/6/4 18/26/19
f 27/42/27 18/26/19 13/21/14
f 28/43/28 30/45/30 29/44/29
f 28/43/28 29/44/29 3/3/2
f 15/39/20 19/27/20 10/28/9
f 15/23/16 10/18/11 14/22/15
f 23/34/25 12/32/23 20/29/9
f 23/20/11 20/18/11 24/30/11
f 31/46/1 13/21/14 30/45/30
f 32/47/31 3/3/2 26/41/26
f 33/48/32 10/18/11 11/19/12
f 16/24/17 18/26/19 27/42/27
f 9/17/10 5/6/4 34/49/33
f 29/44/29 30/45/30 13/21/14
f 29/44/29 13/21/14 3/3/2
f 14/22/15 10/18/11 35/50/34
f 28/43/28 3/3/2 32/47/31
f 34/49/33 5/6/4 17/25/18
f 35/50/34 10/18/11 33/48/32
f 27/42/27 13/21/14 31/46/1
usemtl MatD3D02
g Mesh
s off
f 36/51/35 38/53/37 37/52/36
f 39/54/38 41/56/40 40/55/39
f 42/57/41 39/54/38 43/58/42
f 44/59/1 36/51/35 45/60/43
f 43/58/42 47/62/45 46/61/44
f 45/60/43 49/64/47 48/63/46
f 38/53/37 50/65/6 49/64/47
f 38/53/37 49/64/47 37/52/36
f 41/56/40 51/66/1 47/62/45
f 41/56/40 47/62/45 40/55/39
f 49/64/47 52/67/48 46/61/44
f 47/62/45 53/68/49 48/63/46
f 14/69/50 44/59/1 45/60/43
f 16/70/51 42/57/41 43/58/42
f 9/71/35 38/53/37 36/51/35
f 28/72/38 41/56/40 39/54/38
f 54/73/52 14/69/50 45/60/43
f 53/68/49 45/60/43 48/63/46
f 55/74/53 16/70/51 43/58/42
f 52/67/48 43/58/42 46/61/44
f 55/74/53 43/58/42 52/67/48
f 54/73/52 45/60/43 53/68/49
f 43/58/42 39/54/38 40/55/39
f 43/58/42 40/55/39 47/62/45
f 45/60/43 36/51/35 37/52/36
f 45/60/43 37/52/36 49/64/47
f 53/68/49 47/62/45 51/66/1
f 52/67/48 49/64/47 50/65/6
usemtl MatD3D03
g Mesh
s off
f 56/75/54 57/77/56 48/76/55
f 46/78/57 47/76/59 58/77/58
f 46/78/57 58/77/58 59/75/60
f 49/78/61 46/78/57 59/75/60
f 49/78/61 56/75/54 48/76/55
f 47/76/59 48/76/55 57/77/56
f 58/77/58 47/76/59 57/77/56
f 58/77/58 57/77/56 59/75/60
f 56/75/54 49/78/61 59/75/60
f 56/75/54 59/75/60 57/77/56
