# Wavefront OBJ
# Created by fragMOTION 1.3.7
# http://www.fragmosoft.com

mtllib Button.mtl
# 39 vertices
v -1.05074 2.90362 -1.26855
v -1.05074 1.18801 -1.26855
v 1.06178 2.90362 -1.26855
v 0.466519 0.469377 -1.6878
v 0.007556 0.650343 -1.6878
v 0.007556 -0.009641 -1.6878
v 0.639907 -0.009641 -1.6878
v 0.546976 0.524482 -1.48445
v 0.007556 0.726266 -1.48445
v -0.451407 -0.48866 -1.6878
v -0.624796 -0.009641 -1.6878
v -0.73565 -0.009641 -1.48445
v -0.531865 -0.543764 -1.48445
v 0.007556 -0.745548 -1.48445
v 0.007556 -0.669626 -1.6878
v 1.06178 1.18801 -1.26855
v -1.05074 -1.1983 -1.48445
v -1.05074 -0.915872 -1.48445
v -1.37648 -1.6697 -1.01304
v 1.06178 -1.1983 -1.48445
v 1.06178 2.90362 -1.48445
v 1.38753 -1.6697 -1.01304
v 1.38753 3.37503 -1.01304
v 0.466519 -0.48866 -1.6878
v 0.546976 -0.543764 -1.48445
v 0.750761 -0.009641 -1.48445
v 1.06178 -0.915872 -1.48445
v -1.05074 2.90362 -1.48445
v -1.05074 1.18801 -1.48445
v -1.05074 0.879966 -1.48445
v -1.37648 3.37503 -0.000589
v -1.37648 -1.6697 -0.000589
v -1.37648 3.37503 -1.01304
v 1.38753 -1.6697 -0.000589
v 1.06178 0.879966 -1.48445
v 1.06178 1.18801 -1.48445
v -0.531865 0.524482 -1.48445
v 1.38753 3.37503 -0.000589
v -0.451407 0.469377 -1.6878
# 75 texture vertices
vt -0.673219 0.652554
vt -0.673219 0.511247
vt -0.360302 0.652554
vt -0.14018 0.199516
vt -0.185224 0.217276
vt -0.185224 0.152503
vt -0.123163 0.152503
vt -0.77593 0.882852
vt -0.77689 0.862966
vt -0.748049 0.862966
vt -0.748049 0.882852
vt -0.890573 0.882852
vt -0.920014 0.882852
vt -0.920014 0.862966
vt -0.891533 0.862966
vt -0.862692 0.862966
vt -0.862692 0.882852
vt -0.360302 0.511247
vt -0.673219 0.314699
vt -0.673219 0.337961
vt -0.721469 0.275871
vt -0.360302 0.314699
vt -0.312052 0.275871
vt -0.312052 0.691381
vt -0.834812 0.882852
vt -0.833851 0.862966
vt -0.805371 0.862966
vt -0.805371 0.882852
vt -0.360302 0.337961
vt -0.673219 0.485875
vt -0.97682 0.691381
vt -0.97682 0.275871
vt -0.721469 0.691381
vt -0.721469 0.019722
vt -0.312052 0.019722
vt -0.360302 0.485875
vt -0.052044 0.500403
vt -0.017923 0.500403
vt -0.017923 0.230126
vt -0.052044 0.230126
vt -0.293641 0.056591
vt -0.186159 0.074471
vt -0.243054 0.095753
vt -0.293641 0.245998
vt -0.264548 0.152087
vt -0.243054 0.208421
vt -0.052044 0.70784
vt -0.017923 0.70784
vt -0.017923 0.022689
vt -0.052044 0.022689
vt -0.052044 0.978118
vt -0.017923 0.978118
vt -0.062561 0.275871
vt -0.062561 0.691381
vt -0.98191 0.268234
vt -0.98191 0.021552
vt -0.735228 0.021552
vt -0.735228 0.268234
vt -0.312052 0.94677
vt -0.721469 0.94677
vt -0.070824 0.245998
vt -0.186159 0.229703
vt -0.129264 0.208421
vt -0.070824 0.056591
vt -0.10777 0.152087
vt -0.129264 0.095753
vt -0.230268 0.105491
vt -0.185224 0.08773
vt -0.247285 0.152503
vt -0.949455 0.882852
vt -0.948495 0.862966
vt -0.977336 0.882852
vt -0.977336 0.862966
vt -0.230268 0.199516
vt -0.14018 0.105491
# 40 normals
vn 0 0 -1
vn 0.545859 0.736888 -0.398791
vn 0.718905 0.535449 -0.443249
vn 0.336404 0.875541 -0.346785
vn 0.346504 0.878797 -0.328103
vn -0.721302 -0.531072 -0.444619
vn -0.878015 0 -0.478633
vn -0.886508 0 -0.462713
vn -0.541725 -0.73915 -0.40024
vn 0 -0.936835 -0.349772
vn 0 -0.928518 -0.371288
vn -0.238424 -0.204926 -0.949294
vn -0.610076 0 -0.792343
vn -0.780693 -0.308296 -0.543574
vn 0.24183 -0.415706 -0.876759
vn 0.491307 0.422279 -0.761773
vn 0.753325 -0.398815 -0.522922
vn 0.798093 0.48267 -0.360662
vn 0.721302 -0.531072 -0.444619
vn 0.541725 -0.73915 -0.400239
vn 0.878576 -0.107659 -0.465311
vn 0.878759 0.1127 -0.463768
vn 0.464498 0 -0.885574
vn -0.640083 0.275076 -0.717375
vn -0.464498 0 -0.885574
vn -1 0 0
vn -0.419147 0.785133 -0.455941
vn 0 -1 0
vn 0.610076 0 -0.792343
vn 0.707107 0.707107 0
vn -0.447214 0.894427 0
vn -0.894427 0.447214 0
vn 0.707107 -0.707107 0
vn 1 0 0
vn 0 0 1
vn 0 1 0
vn -0.721302 0.531072 -0.444619
vn -0.541725 0.73915 -0.40024
vn -0.335897 0.87457 -0.349715
vn -0.330726 0.884116 -0.330089
usemtl MatD3D01
g Group
s off
f 1/1/1 3/3/1 2/2/1
f 4/4/1 6/6/1 5/5/1
f 4/4/1 7/7/1 6/6/1
f 4/8/2 9/10/4 8/9/3
f 4/8/2 5/11/5 9/10/4
f 10/12/6 12/14/8 11/13/7
f 10/12/6 13/15/9 12/14/8
f 13/15/9 15/17/11 14/16/10
f 13/15/9 10/12/6 15/17/11
f 3/3/1 16/18/1 2/2/1
f 17/19/12 19/21/14 18/20/13
f 19/21/14 17/19/12 20/22/15
f 21/3/16 23/24/18 22/23/17
f 24/25/19 26/27/21 25/26/20
f 24/25/19 7/28/22 26/27/21
f 20/22/15 27/29/23 22/23/17
f 28/1/24 29/2/13 19/21/14
f 19/21/14 29/2/13 30/30/25
f 17/19/12 27/29/23 20/22/15
f 17/19/12 18/20/13 27/29/23
f 22/23/17 19/21/14 20/22/15
f 31/31/26 19/21/14 32/32/26
f 31/31/26 33/33/27 19/21/14
f 22/23/17 32/34/28 19/21/14
f 22/23/17 34/35/28 32/34/28
f 30/30/25 36/18/23 35/36/29
f 30/30/25 29/2/13 36/18/23
f 2/37/30 36/39/31 29/38/30
f 2/37/30 16/40/32 36/39/31
f 18/41/1 13/43/1 14/42/1
f 35/36/29 36/18/23 22/23/17
f 30/44/1 37/46/1 12/45/1
f 30/30/25 18/20/13 19/21/14
f 22/23/17 27/29/23 35/36/29
f 2/37/30 28/48/33 1/47/33
f 2/37/30 29/38/30 28/48/33
f 21/49/26 16/40/32 3/50/26
f 21/49/26 36/39/31 16/40/32
f 3/51/28 28/48/33 21/52/28
f 3/51/28 1/47/33 28/48/33
f 23/24/18 34/53/34 22/23/17
f 23/24/18 38/54/34 34/53/34
f 21/3/16 33/33/27 23/24/18
f 21/3/16 28/1/24 33/33/27
f 34/55/35 31/57/35 32/56/35
f 34/55/35 38/58/35 31/57/35
f 33/33/27 38/59/36 23/24/18
f 33/33/27 31/60/36 38/59/36
f 33/33/27 28/1/24 19/21/14
f 36/18/23 21/3/16 22/23/17
f 35/61/1 8/63/1 9/62/1
f 27/64/1 25/66/1 26/65/1
f 10/67/1 6/6/1 15/68/1
f 10/67/1 11/69/1 6/6/1
f 8/9/3 7/28/22 4/8/2
f 8/9/3 26/27/21 7/28/22
f 25/26/20 15/17/11 24/25/19
f 25/26/20 14/16/10 15/17/11
f 39/70/37 12/14/8 37/71/38
f 39/70/37 11/13/7 12/14/8
f 37/71/38 5/72/39 39/70/37
f 37/71/38 9/73/40 5/72/39
f 39/74/1 6/6/1 11/69/1
f 39/74/1 5/5/1 6/6/1
f 24/75/1 6/6/1 7/7/1
f 24/75/1 15/68/1 6/6/1
f 35/61/1 26/65/1 8/63/1
f 35/61/1 27/64/1 26/65/1
f 27/64/1 14/42/1 25/66/1
f 27/64/1 18/41/1 14/42/1
f 18/41/1 12/45/1 13/43/1
f 18/41/1 30/44/1 12/45/1
f 30/44/1 9/62/1 37/46/1
f 30/44/1 35/61/1 9/62/1
