# Wavefront OBJ
# Created by fragMOTION 1.3.7
# http://www.fragmosoft.com

mtllib fan.mtl
# 112 vertices
v 656 -11.3137 11.3137
v 656 -16 0
v 656 -11.3137 -11.3137
v 656 -6.10352e-005 -16
v 656 11.3136 -11.3137
v 656 15.9999 0
v 656 11.3136 11.3137
v 656 -6.10352e-005 16
v 0 -6.10352e-005 16
v 0 11.3136 11.3137
v 0 15.9999 0
v 0 11.3136 -11.3137
v 0 -6.10352e-005 -16
v 0 -11.3137 -11.3137
v 0 -16 0
v 0 -11.3137 11.3137
v 9.039 -128 19.4779
v 22.7198 -128 -18.1098
v 26.824 -112 -29.3861
v 17.2475 -12 -3.07473
v 14.5113 -12 4.44281
v 4.93474 -112 30.7542
v 1.17596 -112 29.3861
v 10.7525 -12 3.07473
v 13.4887 -12 -4.44281
v 23.0652 -112 -30.7542
v 18.961 -128 -19.4779
v 5.28021 -128 18.1098
v 9.039 128 -19.4779
v 22.7198 128 18.1098
v 26.824 112 29.3861
v 17.2475 12 3.07472
v 14.5113 12 -4.44282
v 4.93474 112 -30.7542
v 1.17596 112 -29.3861
v 10.7525 12 -3.07474
v 13.4887 12 4.4428
v 23.0652 112 30.7542
v 18.961 128 19.4779
v 5.28021 128 -18.1098
v 9.039 -19.4779 -128
v 22.7198 18.1098 -128
v 26.824 29.3861 -112
v 17.2475 3.07471 -12
v 14.5113 -4.44281 -12
v 4.93474 -30.7542 -112
v 1.17596 -29.3861 -112
v 10.7525 -3.07471 -12
v 13.4887 4.44281 -12
v 23.0652 30.7542 -112
v 18.961 19.4779 -128
v 5.28021 -18.1098 -128
v 9.039 19.4779 128
v 22.7198 -18.1098 128
v 26.824 -29.3861 112
v 17.2475 -3.07471 12
v 14.5113 4.44281 12
v 4.93474 30.7542 112
v 1.17596 29.3861 112
v 10.7525 3.07477 12
v 13.4887 -4.44281 12
v 23.0652 -30.7542 112
v 18.961 -19.4779 128
v 5.28021 18.1098 128
v 9.039 -104.283 -76.7367
v 22.7198 -77.7041 -103.315
v 26.824 -58.4168 -99.9751
v 17.2475 -6.31116 -10.6595
v 14.5113 -11.6268 -5.34375
v 4.93474 -100.942 -57.4495
v 1.17596 -99.9751 -58.4168
v 10.7525 -10.6594 -6.31112
v 13.4887 -5.34375 -11.6268
v 23.0652 -57.4494 -100.942
v 18.961 -76.7367 -104.283
v 5.28021 -103.315 -77.7041
v 9.039 104.283 76.7367
v 22.7198 77.7041 103.315
v 26.824 58.4169 99.9751
v 17.2475 6.31116 10.6594
v 14.5113 11.6268 5.34374
v 4.93474 100.943 57.4495
v 1.17596 99.9751 58.4168
v 10.7525 10.6595 6.31112
v 13.4887 5.34375 11.6268
v 23.0652 57.4495 100.942
v 18.961 76.7368 104.283
v 5.28021 103.315 77.7041
v 9.039 76.7368 -104.283
v 22.7198 103.315 -77.7041
v 26.824 99.9751 -58.4168
v 17.2475 10.6594 -6.31112
v 14.5113 5.34375 -11.6268
v 4.93474 57.4495 -100.942
v 1.17596 58.4169 -99.9751
v 10.7525 6.31116 -10.6594
v 13.4887 11.6268 -5.34372
v 23.0652 100.943 -57.4494
v 18.961 104.283 -76.7367
v 5.28021 77.7041 -103.315
v 9.039 -76.7367 104.283
v 22.7198 -103.315 77.7041
v 26.824 -99.9751 58.4168
v 17.2475 -10.6594 6.31114
v 14.5113 -5.34375 11.6268
v 4.93474 -57.4494 100.942
v 1.17596 -58.4168 99.9751
v 10.7525 -6.31104 10.6595
v 13.4887 -11.6268 5.34374
v 23.0652 -100.942 57.4494
v 18.961 -104.283 76.7367
v 5.28021 -77.7041 103.315
# 276 texture vertices
vt 0.0220971 1.00915
vt -0.0220971 1.00915
vt 0 1
vt -0.03125 1.03125
vt -0.0220971 1.05335
vt 0 1.0625
vt 0.0220971 1.05335
vt 0.03125 1.03125
vt -1.76563 1.03125
vt -0.484375 1.05335
vt -1.76563 1.05335
vt -0.484375 1.03125
vt -1.76563 0.0220971
vt -0.484375 0
vt -1.76563 0
vt -0.484375 0.0220971
vt -0.484375 -0.0220971
vt -1.76563 -0.0220971
vt -0.484375 1.00915
vt -1.76563 1.00915
vt 0.0380428 0.78125
vt -0.0573948 0.8125
vt -0.0353707 0.78125
vt -0.00600533 1.00781
vt 0.00867736 1.00781
vt 0.0600668 0.8125
vt 0.0573948 0.8125
vt -0.00867736 1.00781
vt 0.00600534 1.00781
vt -0.0600668 0.8125
vt -0.0380428 0.78125
vt 0.0353707 0.78125
vt -0.494013 0.8125
vt -0.505376 1.00781
vt -0.512717 1.00781
vt -0.486672 0.8125
vt -0.512717 0.00867736
vt -0.51072 -0.00867736
vt -0.518061 -0.00600533
vt -0.505376 0.00600534
vt -0.518061 1.00781
vt -0.529424 0.8125
vt -0.536766 0.8125
vt -0.51072 1.00781
vt -0.521408 0.78125
vt -0.52875 0.78125
vt -0.52875 -0.0353707
vt -0.494688 0.0353707
vt -0.502029 0.0380428
vt -0.521408 -0.0380428
vt -0.502029 0.78125
vt -0.494688 0.78125
vt -0.0380427 1.28125
vt 0.0573948 1.25
vt 0.0353707 1.28125
vt 0.00600532 1.05469
vt -0.00867737 1.05469
vt -0.0600668 1.25
vt -0.0573948 1.25
vt 0.00867735 1.05469
vt -0.00600535 1.05469
vt 0.0600668 1.25
vt 0.0380428 1.28125
vt -0.0353707 1.28125
vt -0.494013 1.25
vt -0.505376 1.05469
vt -0.512717 1.05469
vt -0.486672 1.25
vt -0.512717 -0.00867737
vt -0.51072 0.00867735
vt -0.518061 0.00600532
vt -0.505376 -0.00600535
vt -0.518061 1.05469
vt -0.529424 1.25
vt -0.536766 1.25
vt -0.51072 1.05469
vt -0.521408 1.28125
vt -0.52875 1.28125
vt -0.52875 0.0353707
vt -0.494688 -0.0353707
vt -0.502029 -0.0380427
vt -0.521408 0.0380428
vt -0.502029 1.28125
vt -0.494688 1.28125
vt -0.25 0.993207
vt -0.21875 1.08864
vt -0.25 1.06662
vt -0.0234375 1.03726
vt -0.0234375 1.02257
vt -0.21875 0.971183
vt -0.21875 0.973855
vt -0.0234375 1.03993
vt -0.0234375 1.02524
vt -0.21875 1.09132
vt -0.25 1.06929
vt -0.25 0.995879
vt -0.494013 -0.21875
vt -0.505376 -0.0234375
vt -0.512717 -0.0234375
vt -0.486672 -0.21875
vt -0.512717 1.02257
vt -0.51072 1.03993
vt -0.518061 1.03726
vt -0.505376 1.02524
vt -0.518061 -0.0234375
vt -0.529424 -0.21875
vt -0.536766 -0.21875
vt -0.51072 -0.0234375
vt -0.521408 -0.25
vt -0.52875 -0.25
vt -0.52875 1.06662
vt -0.494688 0.995879
vt -0.502029 0.993207
vt -0.521408 1.06929
vt -0.502029 -0.25
vt -0.494688 -0.25
vt 0.25 1.06929
vt 0.21875 0.973855
vt 0.25 0.995879
vt 0.0234375 1.02524
vt 0.0234375 1.03993
vt 0.21875 1.09132
vt 0.21875 1.08864
vt 0.0234375 1.02257
vt 0.0234375 1.03726
vt 0.21875 0.971183
vt 0.25 0.993207
vt 0.25 1.06662
vt -0.494013 0.21875
vt -0.505376 0.0234375
vt -0.512717 0.0234375
vt -0.486672 0.21875
vt -0.512717 1.03993
vt -0.51072 1.02257
vt -0.518061 1.02524
vt -0.505376 1.03726
vt -0.518061 0.0234375
vt -0.529424 0.21875
vt -0.536766 0.21875
vt -0.51072 0.0234375
vt -0.521408 0.25
vt -0.52875 0.25
vt -0.52875 0.995879
vt -0.494688 1.06662
vt -0.502029 1.06929
vt -0.521408 0.993207
vt -0.502029 0.25
vt -0.494688 0.25
vt -0.149876 0.827573
vt -0.195264 0.917155
vt -0.201788 0.879484
vt -0.0208192 1.01892
vt -0.010437 1.00854
vt -0.112206 0.834097
vt -0.114095 0.835986
vt -0.0227086 1.02081
vt -0.0123264 1.01043
vt -0.197153 0.919044
vt -0.203677 0.881374
vt -0.151766 0.829462
vt -0.494013 0.834097
vt -0.505376 1.01043
vt -0.512717 1.00854
vt -0.486672 0.835986
vt -0.512717 -0.010437
vt -0.51072 -0.0227086
vt -0.518061 -0.0208192
vt -0.505376 -0.0123264
vt -0.529424 -0.197153
vt -0.536766 -0.195264
vt -0.536766 0.917155
vt -0.521408 0.881374
vt -0.52875 0.879484
vt -0.529424 0.919044
vt -0.494688 0.829462
vt -0.502029 0.827573
vt -0.502029 -0.149876
vt -0.486672 -0.114095
vt -0.494013 -0.112206
vt -0.494688 -0.151766
vt 0.149876 1.23493
vt 0.195264 1.14535
vt 0.201788 1.18302
vt 0.0208192 1.04358
vt 0.010437 1.05396
vt 0.112206 1.2284
vt 0.114095 1.22651
vt 0.0227086 1.04169
vt 0.0123264 1.05207
vt 0.197153 1.14346
vt 0.203677 1.18113
vt 0.151766 1.23304
vt -0.494013 1.2284
vt -0.505376 1.05207
vt -0.512717 1.05396
vt -0.486672 1.22651
vt -0.512717 0.010437
vt -0.51072 0.0227086
vt -0.518061 0.0208192
vt -0.505376 0.0123264
vt -0.529424 0.197153
vt -0.536766 0.195264
vt -0.536766 1.14535
vt -0.521408 1.18113
vt -0.52875 1.18302
vt -0.529424 1.14346
vt -0.494688 1.23304
vt -0.502029 1.23493
vt -0.502029 0.149876
vt -0.486672 0.114095
vt -0.494013 0.112206
vt -0.494688 0.151766
vt -0.203677 1.18113
vt -0.114095 1.22651
vt -0.151766 1.23304
vt -0.0123264 1.05207
vt -0.0227086 1.04169
vt -0.197153 1.14346
vt -0.195264 1.14535
vt -0.010437 1.05396
vt -0.0208192 1.04358
vt -0.112206 1.2284
vt -0.149876 1.23493
vt -0.201788 1.18302
vt -0.494013 -0.197153
vt -0.505376 -0.0208192
vt -0.512717 -0.0227086
vt -0.486672 -0.195264
vt -0.51072 -0.010437
vt -0.518061 -0.0123264
vt -0.518061 1.05207
vt -0.529424 1.2284
vt -0.536766 1.22651
vt -0.51072 1.05396
vt -0.536766 -0.114095
vt -0.521408 -0.149876
vt -0.52875 -0.151766
vt -0.529424 -0.112206
vt -0.494688 -0.201788
vt -0.502029 -0.203677
vt -0.502029 1.18113
vt -0.486672 1.14535
vt -0.494013 1.14346
vt -0.494688 1.18302
vt 0.203677 0.881374
vt 0.114095 0.835986
vt 0.151766 0.829462
vt 0.0123264 1.01043
vt 0.0227086 1.02081
vt 0.197153 0.919044
vt 0.195264 0.917155
vt 0.010437 1.00854
vt 0.0208193 1.01892
vt 0.112206 0.834097
vt 0.149876 0.827573
vt 0.201788 0.879484
vt -0.494013 0.197153
vt -0.505376 0.0208193
vt -0.512717 0.0227086
vt -0.486672 0.195264
vt -0.51072 0.010437
vt -0.518061 0.0123264
vt -0.518061 1.01043
vt -0.529424 0.834097
vt -0.536766 0.835986
vt -0.51072 1.00854
vt -0.536766 0.114095
vt -0.521408 0.149876
vt -0.52875 0.151766
vt -0.529424 0.112206
vt -0.52875 0.829462
vt -0.494688 0.879484
vt -0.502029 0.881374
vt -0.521408 0.827573
vt -0.486672 0.917155
vt -0.494013 0.919044
# 66 normals
vn 1 0 0
vn -1 0 0
vn 0 0.382684 0.923879
vn 0 0.92388 0.382682
vn 0 0.92388 -0.382682
vn 0 0.382684 -0.923879
vn 0 -0.382684 -0.923879
vn 0 -0.923879 -0.382684
vn 0 -0.923879 0.382684
vn 0 -0.382684 0.923879
vn 0.939693 -6.19889e-007 0.34202
vn -0.939692 -4.1008e-007 -0.342022
vn -0.329354 0.26963 0.90489
vn 0 1 0
vn 0.329352 0.26963 -0.904891
vn 0.273617 -0.6 -0.751754
vn 0 -1 0
vn -0.273616 -0.6 0.751754
vn 0.939693 6.67572e-007 -0.34202
vn -0.939692 3.81469e-007 0.342022
vn -0.329353 -0.26963 -0.90489
vn 0.329352 -0.26963 0.904891
vn 0.273617 0.6 0.751754
vn -0.273616 0.6 -0.751754
vn 0.939693 -0.34202 -8.34465e-007
vn -0.939692 0.342023 -7.43868e-007
vn -0.329359 -0.904888 0.26963
vn 0 0 1
vn 0.329356 0.904889 0.26963
vn 0.273621 0.751752 -0.6
vn 0 0 -1
vn -0.27362 -0.751753 -0.6
vn 0.939693 0.34202 8.34465e-007
vn -0.939693 -0.34202 -1.90734e-007
vn -0.329346 0.904893 -0.26963
vn 0.329356 -0.904889 -0.26963
vn 0.273621 -0.751752 0.6
vn -0.27362 0.751753 0.6
vn 0.939693 -0.241845 0.241844
vn -0.939692 0.241846 -0.241847
vn -0.329357 -0.449196 0.83051
vn 5.99029e-006 0.707107 0.707106
vn 0.329358 0.83051 -0.449195
vn 0.273616 0.107307 -0.955834
vn -5.06637e-006 -0.707105 -0.707108
vn -0.273622 -0.955833 0.107304
vn 0.939693 0.241845 -0.241843
vn -0.939692 -0.241845 0.241845
vn -0.329351 0.449197 -0.830512
vn 0.329357 -0.83051 0.449196
vn 0.273616 -0.107306 0.955835
vn -0.273622 0.955833 -0.107304
vn 0.939693 -0.241844 -0.241845
vn -0.939692 0.241848 0.241846
vn -0.329361 -0.830509 -0.449195
vn -2.25008e-006 -0.707107 0.707107
vn 0.329357 0.449196 0.83051
vn 0.273623 0.955833 0.107304
vn -4.97102e-006 0.707108 -0.707105
vn -0.273619 -0.107305 -0.955834
vn 0.939693 0.241844 0.241845
vn -0.939693 -0.241843 -0.241844
vn -0.329333 0.830517 0.449202
vn 0.329359 -0.449195 -0.83051
vn 0.273623 -0.955833 -0.107304
vn -0.27362 0.107306 0.955834
usemtl dirtymetal1
g classname=brush
s off
f 1/1/1 2/3/1 3/2/1
f 1/1/1 3/2/1 4/4/1
f 1/1/1 4/4/1 5/5/1
f 1/1/1 5/5/1 6/6/1
f 1/1/1 6/6/1 7/7/1
f 1/1/1 7/7/1 8/8/1
f 9/8/2 10/7/2 11/6/2
f 9/8/2 11/6/2 12/5/2
f 9/8/2 12/5/2 13/4/2
f 9/8/2 13/4/2 14/2/2
f 9/8/2 14/2/2 15/3/2
f 9/8/2 15/3/2 16/1/2
f 8/9/3 7/11/3 10/10/3
f 8/9/3 10/10/3 9/12/3
f 7/13/4 6/15/4 11/14/4
f 7/13/4 11/14/4 10/16/4
f 6/15/5 5/18/5 12/17/5
f 6/15/5 12/17/5 11/14/5
f 5/11/6 4/9/6 13/12/6
f 5/11/6 13/12/6 12/10/6
f 4/9/7 3/20/7 14/19/7
f 4/9/7 14/19/7 13/12/7
f 3/18/8 2/15/8 15/14/8
f 3/18/8 15/14/8 14/17/8
f 2/15/9 1/13/9 16/16/9
f 2/15/9 16/16/9 15/14/9
f 1/20/10 8/9/10 9/12/10
f 1/20/10 9/12/10 16/19/10
g classname=brush1
s off
f 17/21/11 18/23/11 19/22/11
f 17/21/11 19/22/11 20/24/11
f 17/21/11 20/24/11 21/25/11
f 17/21/11 21/25/11 22/26/11
f 23/27/12 24/29/12 25/28/12
f 23/27/12 25/28/12 26/30/12
f 23/27/12 26/30/12 27/31/12
f 23/27/12 27/31/12 28/32/12
f 22/33/13 21/35/13 24/34/13
f 22/33/13 24/34/13 23/36/13
f 21/37/14 20/39/14 25/38/14
f 21/37/14 25/38/14 24/40/14
f 20/41/15 19/43/15 26/42/15
f 20/41/15 26/42/15 25/44/15
f 19/43/16 18/46/16 27/45/16
f 19/43/16 27/45/16 26/42/16
f 18/47/17 17/49/17 28/48/17
f 18/47/17 28/48/17 27/50/17
f 17/51/18 22/33/18 23/36/18
f 17/51/18 23/36/18 28/52/18
g classname=brush2
s off
f 29/53/19 30/55/19 31/54/19
f 29/53/19 31/54/19 32/56/19
f 29/53/19 32/56/19 33/57/19
f 29/53/19 33/57/19 34/58/19
f 35/59/20 36/61/20 37/60/20
f 35/59/20 37/60/20 38/62/20
f 35/59/20 38/62/20 39/63/20
f 35/59/20 39/63/20 40/64/20
f 34/65/21 33/67/21 36/66/21
f 34/65/21 36/66/21 35/68/21
f 33/69/17 32/71/17 37/70/17
f 33/69/17 37/70/17 36/72/17
f 32/73/22 31/75/22 38/74/22
f 32/73/22 38/74/22 37/76/22
f 31/75/23 30/78/23 39/77/23
f 31/75/23 39/77/23 38/74/23
f 30/79/14 29/81/14 40/80/14
f 30/79/14 40/80/14 39/82/14
f 29/83/24 34/65/24 35/68/24
f 29/83/24 35/68/24 40/84/24
g classname=brush3
s off
f 41/85/25 42/87/25 43/86/25
f 41/85/25 43/86/25 44/88/25
f 41/85/25 44/88/25 45/89/25
f 41/85/25 45/89/25 46/90/25
f 47/91/26 48/93/26 49/92/26
f 47/91/26 49/92/26 50/94/26
f 47/91/26 50/94/26 51/95/26
f 47/91/26 51/95/26 52/96/26
f 46/97/27 45/99/27 48/98/27
f 46/97/27 48/98/27 47/100/27
f 45/101/28 44/103/28 49/102/28
f 45/101/28 49/102/28 48/104/28
f 44/105/29 43/107/29 50/106/29
f 44/105/29 50/106/29 49/108/29
f 43/107/30 42/110/30 51/109/30
f 43/107/30 51/109/30 50/106/30
f 42/111/31 41/113/31 52/112/31
f 42/111/31 52/112/31 51/114/31
f 41/115/32 46/97/32 47/100/32
f 41/115/32 47/100/32 52/116/32
g classname=brush4
s off
f 53/117/33 54/119/33 55/118/33
f 53/117/33 55/118/33 56/120/33
f 53/117/33 56/120/33 57/121/33
f 53/117/33 57/121/33 58/122/33
f 59/123/34 60/125/34 61/124/34
f 59/123/34 61/124/34 62/126/34
f 59/123/34 62/126/34 63/127/34
f 59/123/34 63/127/34 64/128/34
f 58/129/35 57/131/35 60/130/35
f 58/129/35 60/130/35 59/132/35
f 57/133/31 56/135/31 61/134/31
f 57/133/31 61/134/31 60/136/31
f 56/137/36 55/139/36 62/138/36
f 56/137/36 62/138/36 61/140/36
f 55/139/37 54/142/37 63/141/37
f 55/139/37 63/141/37 62/138/37
f 54/143/28 53/145/28 64/144/28
f 54/143/28 64/144/28 63/146/28
f 53/147/38 58/129/38 59/132/38
f 53/147/38 59/132/38 64/148/38
g classname=brush5
s off
f 65/149/39 66/151/39 67/150/39
f 65/149/39 67/150/39 68/152/39
f 65/149/39 68/152/39 69/153/39
f 65/149/39 69/153/39 70/154/39
f 71/155/40 72/157/40 73/156/40
f 71/155/40 73/156/40 74/158/40
f 71/155/40 74/158/40 75/159/40
f 71/155/40 75/159/40 76/160/40
f 70/161/41 69/163/41 72/162/41
f 70/161/41 72/162/41 71/164/41
f 69/165/42 68/167/42 73/166/42
f 69/165/42 73/166/42 72/168/42
f 68/167/43 67/170/43 74/169/43
f 68/167/43 74/169/43 73/166/43
f 67/171/44 66/173/44 75/172/44
f 67/171/44 75/172/44 74/174/44
f 66/173/45 65/176/45 76/175/45
f 66/173/45 76/175/45 75/172/45
f 65/177/46 70/179/46 71/178/46
f 65/177/46 71/178/46 76/180/46
g classname=brush6
s off
f 77/181/47 78/183/47 79/182/47
f 77/181/47 79/182/47 80/184/47
f 77/181/47 80/184/47 81/185/47
f 77/181/47 81/185/47 82/186/47
f 83/187/48 84/189/48 85/188/48
f 83/187/48 85/188/48 86/190/48
f 83/187/48 86/190/48 87/191/48
f 83/187/48 87/191/48 88/192/48
f 82/193/49 81/195/49 84/194/49
f 82/193/49 84/194/49 83/196/49
f 81/197/45 80/199/45 85/198/45
f 81/197/45 85/198/45 84/200/45
f 80/199/50 79/202/50 86/201/50
f 80/199/50 86/201/50 85/198/50
f 79/203/51 78/205/51 87/204/51
f 79/203/51 87/204/51 86/206/51
f 78/205/42 77/208/42 88/207/42
f 78/205/42 88/207/42 87/204/42
f 77/209/52 82/211/52 83/210/52
f 77/209/52 83/210/52 88/212/52
g classname=brush7
s off
f 89/213/53 90/215/53 91/214/53
f 89/213/53 91/214/53 92/216/53
f 89/213/53 92/216/53 93/217/53
f 89/213/53 93/217/53 94/218/53
f 95/219/54 96/221/54 97/220/54
f 95/219/54 97/220/54 98/222/54
f 95/219/54 98/222/54 99/223/54
f 95/219/54 99/223/54 100/224/54
f 94/225/55 93/227/55 96/226/55
f 94/225/55 96/226/55 95/228/55
f 93/227/56 92/230/56 97/229/56
f 93/227/56 97/229/56 96/226/56
f 92/231/57 91/233/57 98/232/57
f 92/231/57 98/232/57 97/234/57
f 91/235/58 90/237/58 99/236/58
f 91/235/58 99/236/58 98/238/58
f 90/237/59 89/240/59 100/239/59
f 90/237/59 100/239/59 99/236/59
f 89/241/60 94/243/60 95/242/60
f 89/241/60 95/242/60 100/244/60
g classname=brush8
s off
f 101/245/61 102/247/61 103/246/61
f 101/245/61 103/246/61 104/248/61
f 101/245/61 104/248/61 105/249/61
f 101/245/61 105/249/61 106/250/61
f 107/251/62 108/253/62 109/252/62
f 107/251/62 109/252/62 110/254/62
f 107/251/62 110/254/62 111/255/62
f 107/251/62 111/255/62 112/256/62
f 106/257/63 105/259/63 108/258/63
f 106/257/63 108/258/63 107/260/63
f 105/259/59 104/262/59 109/261/59
f 105/259/59 109/261/59 108/258/59
f 104/263/64 103/265/64 110/264/64
f 104/263/64 110/264/64 109/266/64
f 103/267/65 102/269/65 111/268/65
f 103/267/65 111/268/65 110/270/65
f 102/271/56 101/273/56 112/272/56
f 102/271/56 112/272/56 111/274/56
f 101/273/66 106/276/66 107/275/66
f 101/273/66 107/275/66 112/272/66
