# Wavefront OBJ
# Created by fragMOTION 1.3.7
# http://www.fragmosoft.com

mtllib gateawall1.mtl
# 103 vertices
v 16 -96 480
v 16 -96 460.823
v 16 -56 462.154
v 16 -56 464
v -16 -96 460.823
v -16 -96 480
v -16 -56 464
v -16 -56 462.154
v 16 112 467.742
v 16 112 504
v 16 64 496
v 16 64 466.145
v -16 112 504
v -16 112 467.742
v -16 64 466.145
v -16 64 496
v 16 112 472
v 16 160 469.338
v 16 160 488
v -16 112 472
v -16 160 488
v -16 160 469.338
v 16 160 496
v 16 160 469.339
v 16 200 470.669
v 16 200 480
v -16 200 470.669
v -16 160 469.339
v -16 160 496
v -16 200 480.001
v 16 240 496
v 16 240 472
v -16 240 471.999
v -16 240 496
v 16 200 496
v 16 200 470.669
v -16 200 470.669
v -16 200 496
v -16 -240 0
v -16 -240 448
v -16 240 448
v -16 240 0
v 16 240 6.10352e-005
v 16 240 448
v 16 -240 448
v 16 -240 6.10352e-005
v 16 -208 448
v 16 -208 472
v 16 -240 472
v 16 -240 448
v -16 -208 472
v -16 -208 448
v -16 -240 472
v 16 -160 448
v 16 -160 472
v 16 -208 488
v 16 -208 448
v -16 -160 472
v -16 -160 448
v -16 -208 448
v -16 -208 488
v 16 -120 480
v 16 -160 464
v 16 -160 448
v 16 -120 448
v -16 -120 480
v -16 -120 448
v -16 -160 448
v -16 -160 464
v 16 40 448
v 16 40 472
v 16 -8 472
v 16 -8 448
v -16 -8 472
v -16 40 472
v -16 40 448
v -16 -8 448
v 16 -56 472
v 16 -56 448
v 16 -8 448
v 16 -8 488
v -16 -56 472
v -16 -8 488
v -16 -8 448
v -16 -56 448
v 16 -56 448
v 16 -120 460.024
v -16 -120 460.025
v -16 -56 462.153
v -16 -56 448
v -16 240 471.999
v 16 240 472
v 16 240 448
v 16 40 465.347
v -16 40 465.347
v 16 -240 -16
v -16 -240 -16
v -16 240 -16
v 16 240 -16
v 16 240 16
v -16 240 16
v -16 -240 16
v 16 -240 16
# 109 texture vertices
vt -8.37673 -3.72993
vt -8.42514 -3.62142
vt -8.42875 -3.72993
vt -8.42014 -3.62142
vt -22.8733 -7.51098
vt -22.7865 -7.50597
vt -22.7865 -7.51098
vt -22.8733 -7.50597
vt -21.3108 -3.72993
vt -21.224 -3.62142
vt -21.224 -3.72993
vt -21.3108 -3.62142
vt -22.7865 -7.46257
vt -22.8733 -7.51459
vt -22.7865 -7.51459
vt -22.8733 -7.46257
vt -8.40999 -3.16569
vt -8.33333 -3.2959
vt -8.31163 -3.16569
vt -8.41432 -3.2959
vt -21.3108 -3.16569
vt -21.224 -3.2959
vt -21.3108 -3.2959
vt -21.224 -3.16569
vt -22.8733 -7.50015
vt -22.7865 -7.41916
vt -22.8733 -7.41916
vt -22.7865 -7.50015
vt -22.8733 -7.49582
vt -22.7865 -7.39746
vt -22.7865 -7.49582
vt -22.8733 -7.39746
vt -8.39844 -3.16569
vt -8.40566 -3.03548
vt -8.35503 -3.03548
vt -21.3108 -3.03548
vt -21.224 -3.03548
vt -22.7865 -7.48427
vt -22.8733 -7.48427
vt -22.8733 -7.49149
vt -22.7865 -7.44086
vt -22.7865 -7.49149
vt -22.8733 -7.44086
vt -8.33333 -3.03548
vt -8.40205 -2.92697
vt -8.37673 -2.92697
vt -21.3108 -2.92697
vt -21.224 -2.92697
vt -22.8733 -7.48788
vt -22.7865 -7.48788
vt -8.33333 -2.92697
vt -8.39844 -2.81847
vt -8.33333 -2.81847
vt -21.224 -2.81847
vt -21.3108 -2.81847
vt -9.67882 -4.12055
vt -8.46354 -2.81847
vt -8.46354 -4.12055
vt -9.67882 -2.81847
vt -22.7865 -8.76465
vt -22.8733 -7.54937
vt -22.8733 -8.76465
vt -22.7865 -7.54937
vt -21.224 -4.12055
vt -21.3108 -4.12055
vt -8.46354 -4.03375
vt -8.39844 -4.12055
vt -8.39844 -4.03375
vt -21.224 -4.03375
vt -21.3108 -4.03375
vt -8.46354 -3.90354
vt -8.35503 -4.03375
vt -8.39844 -3.90354
vt -21.224 -3.90354
vt -21.3108 -3.90354
vt -8.37674 -3.79503
vt -8.42014 -3.90354
vt -8.46354 -3.79503
vt -21.224 -3.79503
vt -21.3108 -3.79503
vt -8.46354 -3.361
vt -8.39844 -3.49121
vt -8.39844 -3.361
vt -8.46354 -3.49121
vt -21.3108 -3.49121
vt -21.224 -3.361
vt -21.3108 -3.361
vt -21.224 -3.49121
vt -8.39844 -3.62142
vt -8.46354 -3.62142
vt -8.35503 -3.49121
vt -8.43092 -3.79503
vt -22.8733 -7.51675
vt -22.7865 -7.51675
vt -8.41648 -3.361
vt -22.8733 -7.50231
vt -22.7865 -7.50231
vt -16.875 -5
vt -16.75 -3.125
vt -16.75 -5
vt -16.875 -3.125
vt -16.875 2.0625
vt -16.75 2.1875
vt -16.875 2.1875
vt -16.75 2.0625
vt 2.0625 -5
vt 2.1875 -3.125
vt 2.0625 -3.125
vt 2.1875 -5
# 13 normals
vn 1 0 0
vn -1 0 0
vn 0 1 0
vn 9.53147e-006 0.0332519 -0.999447
vn 0 -1 0
vn 5.31279e-006 0.371391 0.928477
vn 1.12884e-005 -0.164406 0.986393
vn 1.08568e-005 -0.316228 0.948683
vn 0 0 1
vn 1.90735e-006 0 -1
vn 0 0.31623 0.948683
vn 1.06256e-005 -0.371388 0.928478
vn -1.14378e-005 -0.0332534 0.999447
usemtl metalpanels2
g classname=brush13
s off
f 96/98/10 97/100/10 98/99/10
f 96/98/10 98/99/10 99/101/10
f 100/101/9 101/99/9 102/100/9
f 100/101/9 102/100/9 103/98/9
f 96/102/5 103/104/5 102/103/5
f 96/102/5 102/103/5 97/105/5
f 98/105/3 101/103/3 100/104/3
f 98/105/3 100/104/3 99/102/3
f 96/106/1 99/108/1 100/107/1
f 96/106/1 100/107/1 103/109/1
f 102/109/2 101/107/2 98/108/2
f 102/109/2 98/108/2 97/106/2
usemtl concretemoss
g classname=brush
s off
f 1/1/1 2/3/1 3/2/1
f 1/1/1 3/2/1 4/4/1
f 5/3/2 6/1/2 7/4/2
f 5/3/2 7/4/2 8/2/2
f 3/5/3 8/7/3 7/6/3
f 3/5/3 7/6/3 4/8/3
f 2/9/4 5/11/4 8/10/4
f 2/9/4 8/10/4 3/12/4
f 6/13/5 5/15/5 2/14/5
f 6/13/5 2/14/5 1/16/5
f 4/12/6 7/10/6 6/11/6
f 4/12/6 6/11/6 1/9/6
g classname=brush1
s off
f 9/17/1 10/19/1 11/18/1
f 9/17/1 11/18/1 12/20/1
f 13/19/2 14/17/2 15/20/2
f 13/19/2 15/20/2 16/18/2
f 9/21/4 12/23/4 15/22/4
f 9/21/4 15/22/4 14/24/4
f 12/25/5 11/27/5 16/26/5
f 12/25/5 16/26/5 15/28/5
f 9/29/3 14/31/3 13/30/3
f 9/29/3 13/30/3 10/32/3
f 10/21/7 13/24/7 16/22/7
f 10/21/7 16/22/7 11/23/7
g classname=brush2
s off
f 17/33/1 9/17/1 18/34/1
f 17/33/1 18/34/1 19/35/1
f 14/17/2 20/33/2 21/35/2
f 14/17/2 21/35/2 22/34/2
f 18/36/4 9/21/4 14/24/4
f 18/36/4 14/24/4 22/37/4
f 9/29/5 17/39/5 20/38/5
f 9/29/5 20/38/5 14/31/5
f 18/40/3 22/42/3 21/41/3
f 18/40/3 21/41/3 19/43/3
f 19/36/8 21/37/8 20/24/8
f 19/36/8 20/24/8 17/21/8
g classname=brush3
s off
f 23/44/1 24/34/1 25/45/1
f 23/44/1 25/45/1 26/46/1
f 27/45/2 28/34/2 29/44/2
f 27/45/2 29/44/2 30/46/2
f 25/47/4 24/36/4 28/37/4
f 25/47/4 28/37/4 27/48/4
f 24/40/5 23/27/5 29/26/5
f 24/40/5 29/26/5 28/42/5
f 25/49/3 27/50/3 30/13/3
f 25/49/3 30/13/3 26/16/3
f 26/47/6 30/48/6 29/37/6
f 26/47/6 29/37/6 23/36/6
g classname=brush4
s off
f 31/27/3 32/39/3 33/38/3
f 31/27/3 33/38/3 34/26/3
f 35/51/1 36/45/1 32/52/1
f 35/51/1 32/52/1 31/53/1
f 37/45/2 38/51/2 34/53/2
f 37/45/2 34/53/2 33/52/2
f 36/47/4 37/48/4 33/54/4
f 36/47/4 33/54/4 32/55/4
f 38/26/5 37/50/5 36/49/5
f 38/26/5 36/49/5 35/27/5
f 31/55/9 34/54/9 38/48/9
f 31/55/9 38/48/9 35/47/9
g classname=brush5
s off
f 39/56/2 40/58/2 41/57/2
f 39/56/2 41/57/2 42/59/2
f 43/59/1 44/57/1 45/58/1
f 43/59/1 45/58/1 46/56/1
f 39/60/5 46/62/5 45/61/5
f 39/60/5 45/61/5 40/63/5
f 41/63/3 44/61/3 43/62/3
f 41/63/3 43/62/3 42/60/3
f 39/64/10 42/54/10 43/55/10
f 39/64/10 43/55/10 46/65/10
f 45/65/9 44/55/9 41/54/9
f 45/65/9 41/54/9 40/64/9
g classname=brush6
s off
f 47/66/1 48/68/1 49/67/1
f 47/66/1 49/67/1 50/58/1
f 51/68/2 52/66/2 40/58/2
f 51/68/2 40/58/2 53/67/2
f 49/39/5 53/38/5 40/63/5
f 49/39/5 40/63/5 50/61/5
f 48/39/3 47/61/3 52/63/3
f 48/39/3 52/63/3 51/38/3
f 49/65/9 48/70/9 51/69/9
f 49/65/9 51/69/9 53/64/9
f 52/69/10 47/70/10 50/65/10
f 52/69/10 50/65/10 40/64/10
g classname=brush7
s off
f 54/71/1 55/73/1 56/72/1
f 54/71/1 56/72/1 57/66/1
f 58/73/2 59/71/2 60/66/2
f 58/73/2 60/66/2 61/72/2
f 57/61/5 56/43/5 61/41/5
f 57/61/5 61/41/5 60/63/5
f 55/39/3 54/61/3 59/63/3
f 55/39/3 59/63/3 58/38/3
f 56/70/11 55/75/11 58/74/11
f 56/70/11 58/74/11 61/69/11
f 59/74/10 54/75/10 57/70/10
f 59/74/10 57/70/10 60/69/10
g classname=brush8
s off
f 62/76/1 63/77/1 64/71/1
f 62/76/1 64/71/1 65/78/1
f 66/76/2 67/78/2 68/71/2
f 66/76/2 68/71/2 69/77/2
f 64/61/5 63/8/5 69/6/5
f 64/61/5 69/6/5 68/63/5
f 62/16/3 65/61/3 67/63/3
f 62/16/3 67/63/3 66/13/3
f 63/75/12 62/80/12 66/79/12
f 63/75/12 66/79/12 69/74/12
f 67/79/10 65/80/10 64/75/10
f 67/79/10 64/75/10 68/74/10
g classname=brush9
s off
f 70/81/1 71/83/1 72/82/1
f 70/81/1 72/82/1 73/84/1
f 74/82/2 75/83/2 76/81/2
f 74/82/2 76/81/2 77/84/2
f 75/38/3 71/39/3 70/61/3
f 75/38/3 70/61/3 76/63/3
f 74/38/5 77/63/5 73/61/5
f 74/38/5 73/61/5 72/39/5
f 72/85/9 71/87/9 75/86/9
f 72/85/9 75/86/9 74/88/9
f 76/86/10 70/87/10 73/85/10
f 76/86/10 73/85/10 77/88/10
g classname=brush10
s off
f 78/89/1 79/90/1 80/84/1
f 78/89/1 80/84/1 81/91/1
f 82/89/2 83/91/2 84/84/2
f 82/89/2 84/84/2 85/90/2
f 84/63/3 83/41/3 81/43/3
f 84/63/3 81/43/3 80/61/3
f 82/38/5 85/63/5 79/61/5
f 82/38/5 79/61/5 78/39/5
f 78/12/8 81/85/8 83/88/8
f 78/12/8 83/88/8 82/10/8
f 84/88/10 80/85/10 79/12/10
f 84/88/10 79/12/10 85/10/10
g classname=brush11
s off
f 86/90/1 3/2/1 87/92/1
f 86/90/1 87/92/1 65/78/1
f 88/92/2 89/2/2 90/90/2
f 88/92/2 90/90/2 67/78/2
f 87/93/5 88/94/5 67/63/5
f 87/93/5 67/63/5 65/61/5
f 89/7/3 3/5/3 86/61/3
f 89/7/3 86/61/3 90/63/3
f 87/80/13 3/12/13 89/10/13
f 87/80/13 89/10/13 88/79/13
f 90/10/10 86/12/10 65/80/10
f 90/10/10 65/80/10 67/79/10
g classname=brush12
s off
f 91/38/3 92/39/3 93/61/3
f 91/38/3 93/61/3 41/63/3
f 92/52/1 94/95/1 70/81/1
f 92/52/1 70/81/1 93/57/1
f 76/81/2 95/95/2 91/52/2
f 76/81/2 91/52/2 41/57/2
f 94/96/5 95/97/5 76/63/5
f 94/96/5 76/63/5 70/61/5
f 94/87/13 92/55/13 91/54/13
f 94/87/13 91/54/13 95/86/13
f 41/54/10 93/55/10 70/87/10
f 41/54/10 70/87/10 76/86/10
