# Wavefront OBJ
# Created by fragMOTION 1.3.7
# http://www.fragmosoft.com

mtllib gateawall2.mtl
# 105 vertices
v 15.9878 -240 432.013
v 15.9878 -240 0.0126343
v 15.9878 240 0.0126343
v 15.9878 240 432.013
v -16.0127 240 432.013
v -16.0127 240 0.0125122
v -16.0127 -240 0.0125122
v -16.0127 -240 432.013
v 15.9875 -240 496.013
v -16.0125 -240 496.013
v -16.0125 -240 432.013
v 15.9878 -240 432.013
v 15.9875 -208 496.013
v 15.9878 -208 432.013
v -16.0125 -208 496.013
v -16.0125 -208 432.013
v 15.9875 -160 496.013
v 15.9878 -208 480.013
v 15.9875 -208 432.013
v 15.9878 -160 432.013
v -16.0125 -160 496.013
v -16.0125 -160 432.013
v -16.0127 -208 480.013
v 15.9875 -120 488.013
v 15.9875 -160 504.013
v 15.9875 -160 432.013
v 15.9875 -120 432.013
v -16.0129 -120 488.013
v -16.0129 -120 432.013
v -16.0129 -160 432.013
v -16.0129 -160 504.013
v 15.9878 40 432.013
v 15.9875 40 496.013
v 15.9875 -8 496.013
v 15.9878 -8 432.013
v -16.0125 -8 496.013
v -16.0125 40 496.013
v -16.0125 40 432.013
v -16.0125 -8 432.013
v 15.9875 -56 496.013
v 15.9878 -56 432.013
v 15.9875 -8 432.013
v 15.9875 -8 480.013
v -16.0127 -56 496.012
v -16.0127 -8 480.013
v -16.0127 -8 432.013
v -16.0127 -56 432.013
v 15.9875 -96 507.189
v -16.0127 -96 507.189
v -16.0127 -120 507.988
v 15.9875 -120 507.988
v 15.9875 -96 432.013
v -16.0127 -96 432.013
v -16.0127 -120 432.013
v 15.9875 -96 488.013
v 15.9875 -56 432.013
v 15.9875 -56 504.013
v -16.0129 -96 488.013
v -16.0129 -56 504.013
v -16.0129 -56 432.013
v -16.0129 -96 432.013
v 15.9875 64 501.867
v -16.0125 64 501.867
v -16.0125 40 502.666
v 15.9875 40 502.666
v 15.9878 64 432.013
v -16.0125 64 432.013
v 15.9873 112 432.013
v 15.9875 112 464.012
v 15.9873 64 472.013
v 15.9873 64 432.013
v -16.0129 64 472.012
v -16.0129 112 464.013
v -16.0129 112 432.013
v -16.0129 64 432.013
v 15.9875 160 480.013
v 15.9875 112 496.013
v 15.9878 112 432.013
v 15.9875 160 432.013
v -16.0127 160 480.013
v -16.0127 160 432.013
v -16.0127 112 432.013
v -16.0127 112 496.012
v 15.9873 200 488.012
v 15.9875 160 472.013
v 15.9875 160 432.013
v 15.9875 200 432.013
v -16.0129 200 488.013
v -16.0129 200 432.013
v -16.0129 160 432.013
v -16.0129 160 472.013
v -16.0129 240 432.013
v -16.0129 240 472.013
v 15.9875 240 472.013
v 15.9875 240 432.013
v 15.9875 200 472.013
v -16.0129 200 472.013
v 16 -240 -16
v -16 -240 -16
v -16 240 -16
v 16 240 -16
v 16 240 16
v -16 240 16
v -16 -240 16
v 16 -240 16
# 101 texture vertices
vt -2.73431 -4.12055
vt -3.90618 -2.81847
vt -3.90618 -4.12055
vt -2.73431 -2.81847
vt -15.7985 14.4558
vt -15.7117 13.284
vt -15.7117 14.4558
vt -15.7985 13.284
vt 2.03993 -4.12055
vt 2.12674 -2.81847
vt 2.03993 -2.81847
vt 2.12674 -4.12055
vt -15.7985 14.6294
vt -15.7117 14.6294
vt -2.5607 -4.03375
vt -2.5607 -4.12055
vt -2.73431 -4.03375
vt 2.12674 -4.03375
vt 2.03993 -4.03375
vt -2.5607 -3.90354
vt -2.6041 -4.03375
vt -2.73431 -3.90354
vt -15.7117 14.586
vt -15.7985 14.586
vt 2.12674 -3.90354
vt 2.03993 -3.90354
vt -2.5824 -3.79503
vt -2.53899 -3.90354
vt -2.73431 -3.79503
vt -15.7117 14.6511
vt -15.7985 14.6511
vt -15.7985 14.6077
vt -15.7117 14.6077
vt 2.12674 -3.79503
vt 2.03993 -3.79503
vt -2.73431 -3.361
vt -2.5607 -3.49121
vt -2.5607 -3.361
vt -2.73431 -3.49121
vt 2.03993 -3.49121
vt 2.12674 -3.361
vt 2.03993 -3.361
vt 2.12674 -3.49121
vt -2.5607 -3.62142
vt -2.73431 -3.62142
vt -2.6041 -3.49121
vt 2.03993 -3.62142
vt 2.12674 -3.62142
vt 2.03993 -3.72993
vt 2.12674 -3.72993
vt -2.73431 -3.72993
vt -2.52821 -3.79503
vt -2.53038 -3.72993
vt -15.7985 14.6619
vt -15.7117 14.6619
vt -15.7117 14.6598
vt -15.7985 14.6598
vt -2.5824 -3.72993
vt -2.53899 -3.62142
vt 2.03993 -3.2959
vt 2.12674 -3.2959
vt -2.73431 -3.2959
vt -2.54265 -3.361
vt -2.54481 -3.2959
vt -15.7985 14.6475
vt -15.7117 14.6475
vt -15.7117 14.6453
vt -15.7985 14.6453
vt -2.73431 -3.16569
vt -2.6258 -3.2959
vt -2.6475 -3.16569
vt -15.7985 14.5426
vt -15.7117 14.5426
vt -15.7117 14.5643
vt -15.7985 14.5643
vt 2.12674 -3.16569
vt 2.03993 -3.16569
vt -2.6041 -3.03548
vt -2.5607 -3.16569
vt -2.73431 -3.03548
vt 2.12674 -3.03548
vt 2.03993 -3.03548
vt -2.5824 -2.92697
vt -2.6258 -3.03548
vt -2.73431 -2.92697
vt 2.12674 -2.92697
vt 2.03993 -2.92697
vt -2.6258 -2.81847
vt -2.6258 -2.92697
vt -15 -5
vt -14.875 -3.125
vt -14.875 -5
vt -15 -3.125
vt -15 2.0625
vt -14.875 2.1875
vt -15 2.1875
vt -14.875 2.0625
vt 2.0625 -5
vt 2.1875 -3.125
vt 2.0625 -3.125
vt 2.1875 -5
# 12 normals
vn 1 0 0
vn -1 0 0
vn 0 -1 0
vn 0 1 0
vn -3.81464e-006 0 1
vn 3.81464e-006 0 -1
vn 0 -0.316228 0.948683
vn 0 0.371391 0.928477
vn 0 0.316228 0.948683
vn 0 0.0332458 0.999447
vn 0 -0.371391 0.928477
vn 3.76274e-006 0.164401 0.986393
usemtl metalpanels2
g classname=brush13
s off
f 98/90/6 99/92/6 100/91/6
f 98/90/6 100/91/6 101/93/6
f 102/93/5 103/91/5 104/92/5
f 102/93/5 104/92/5 105/90/5
f 98/94/3 105/96/3 104/95/3
f 98/94/3 104/95/3 99/97/3
f 100/97/4 103/95/4 102/96/4
f 100/97/4 102/96/4 101/94/4
f 98/98/1 101/100/1 102/99/1
f 98/98/1 102/99/1 105/101/1
f 104/101/2 103/99/2 100/100/2
f 104/101/2 100/100/2 99/98/2
usemtl concretemoss
g classname=brush
s off
f 1/1/1 2/3/1 3/2/1
f 1/1/1 3/2/1 4/4/1
f 5/4/2 6/2/2 7/3/2
f 5/4/2 7/3/2 8/1/2
f 1/5/3 8/7/3 7/6/3
f 1/5/3 7/6/3 2/8/3
f 3/8/4 6/6/4 5/7/4
f 3/8/4 5/7/4 4/5/4
f 1/9/5 4/11/5 5/10/5
f 1/9/5 5/10/5 8/12/5
f 7/12/6 6/10/6 3/11/6
f 7/12/6 3/11/6 2/9/6
g classname=brush1
s off
f 9/13/3 10/14/3 11/7/3
f 9/13/3 11/7/3 12/5/3
f 13/15/1 9/16/1 12/1/1
f 13/15/1 12/1/1 14/17/1
f 15/15/2 16/17/2 11/1/2
f 15/15/2 11/1/2 10/16/2
f 13/13/4 14/5/4 16/7/4
f 13/13/4 16/7/4 15/14/4
f 9/9/5 13/19/5 15/18/5
f 9/9/5 15/18/5 10/12/5
f 16/18/6 14/19/6 12/9/6
f 16/18/6 12/9/6 11/12/6
g classname=brush2
s off
f 17/20/1 18/21/1 19/17/1
f 17/20/1 19/17/1 20/22/1
f 21/20/2 22/22/2 16/17/2
f 21/20/2 16/17/2 23/21/2
f 19/5/3 18/24/3 23/23/3
f 19/5/3 23/23/3 16/7/3
f 17/13/4 20/5/4 22/7/4
f 17/13/4 22/7/4 21/14/4
f 18/19/7 17/26/7 21/25/7
f 18/19/7 21/25/7 23/18/7
f 22/25/6 20/26/6 19/19/6
f 22/25/6 19/19/6 16/18/6
g classname=brush3
s off
f 24/27/1 25/28/1 26/22/1
f 24/27/1 26/22/1 27/29/1
f 28/27/2 29/29/2 30/22/2
f 28/27/2 30/22/2 31/28/2
f 26/5/3 25/31/3 31/30/3
f 26/5/3 31/30/3 30/7/3
f 24/32/4 27/5/4 29/7/4
f 24/32/4 29/7/4 28/33/4
f 25/26/8 24/35/8 28/34/8
f 25/26/8 28/34/8 31/25/8
f 29/34/6 27/35/6 26/26/6
f 29/34/6 26/26/6 30/25/6
g classname=brush4
s off
f 32/36/1 33/38/1 34/37/1
f 32/36/1 34/37/1 35/39/1
f 36/37/2 37/38/2 38/36/2
f 36/37/2 38/36/2 39/39/2
f 38/7/4 37/14/4 33/13/4
f 38/7/4 33/13/4 32/5/4
f 36/14/3 39/7/3 35/5/3
f 36/14/3 35/5/3 34/13/3
f 34/40/5 33/42/5 37/41/5
f 34/40/5 37/41/5 36/43/5
f 38/41/6 32/42/6 35/40/6
f 38/41/6 35/40/6 39/43/6
g classname=brush5
s off
f 40/44/1 41/45/1 42/39/1
f 40/44/1 42/39/1 43/46/1
f 44/44/2 45/46/2 46/39/2
f 44/44/2 46/39/2 47/45/2
f 46/7/4 45/23/4 43/24/4
f 46/7/4 43/24/4 42/5/4
f 44/14/3 47/7/3 41/5/3
f 44/14/3 41/5/3 40/13/3
f 40/47/9 43/40/9 45/43/9
f 40/47/9 45/43/9 44/48/9
f 46/43/6 42/40/6 41/47/6
f 46/43/6 41/47/6 47/48/6
g classname=brush6
s off
f 48/49/10 49/50/10 50/34/10
f 48/49/10 50/34/10 51/35/10
f 52/51/1 48/53/1 51/52/1
f 52/51/1 51/52/1 27/29/1
f 49/53/2 53/51/2 54/29/2
f 49/53/2 54/29/2 50/52/2
f 51/54/3 50/55/3 54/7/3
f 51/54/3 54/7/3 27/5/3
f 49/56/4 48/57/4 52/5/4
f 49/56/4 52/5/4 53/7/4
f 53/50/6 52/49/6 27/35/6
f 53/50/6 27/35/6 54/34/6
g classname=brush7
s off
f 55/58/1 52/51/1 56/45/1
f 55/58/1 56/45/1 57/59/1
f 58/58/2 59/59/2 60/45/2
f 58/58/2 60/45/2 61/51/2
f 60/7/4 59/30/4 57/31/4
f 60/7/4 57/31/4 56/5/4
f 58/33/3 61/7/3 52/5/3
f 58/33/3 52/5/3 55/32/3
f 55/49/11 57/47/11 59/48/11
f 55/49/11 59/48/11 58/50/11
f 60/48/6 56/47/6 52/49/6
f 60/48/6 52/49/6 61/50/6
g classname=brush8
s off
f 62/60/10 63/61/10 64/41/10
f 62/60/10 64/41/10 65/42/10
f 66/62/1 62/64/1 65/63/1
f 66/62/1 65/63/1 32/36/1
f 63/64/2 67/62/2 38/36/2
f 63/64/2 38/36/2 64/63/2
f 65/65/3 64/66/3 38/7/3
f 65/65/3 38/7/3 32/5/3
f 63/67/4 62/68/4 66/5/4
f 63/67/4 66/5/4 67/7/4
f 67/61/6 66/60/6 32/42/6
f 67/61/6 32/42/6 38/41/6
g classname=brush9
s off
f 68/69/1 69/71/1 70/70/1
f 68/69/1 70/70/1 71/62/1
f 72/70/2 73/71/2 74/69/2
f 72/70/2 74/69/2 75/62/2
f 74/7/4 73/73/4 69/72/4
f 74/7/4 69/72/4 68/5/4
f 72/74/3 75/7/3 71/5/3
f 72/74/3 71/5/3 70/75/3
f 70/60/12 69/77/12 73/76/12
f 70/60/12 73/76/12 72/61/12
f 74/76/6 68/77/6 71/60/6
f 74/76/6 71/60/6 75/61/6
g classname=brush10
s off
f 76/78/1 77/79/1 78/69/1
f 76/78/1 78/69/1 79/80/1
f 80/78/2 81/80/2 82/69/2
f 80/78/2 82/69/2 83/79/2
f 77/13/3 83/14/3 82/7/3
f 77/13/3 82/7/3 78/5/3
f 80/23/4 76/24/4 79/5/4
f 80/23/4 79/5/4 81/7/4
f 77/77/9 76/82/9 80/81/9
f 77/77/9 80/81/9 83/76/9
f 81/81/6 79/82/6 78/77/6
f 81/81/6 78/77/6 82/76/6
g classname=brush11
s off
f 84/83/1 85/84/1 86/80/1
f 84/83/1 86/80/1 87/85/1
f 88/83/2 89/85/2 90/80/2
f 88/83/2 90/80/2 91/84/2
f 85/75/3 91/74/3 90/7/3
f 85/75/3 90/7/3 86/5/3
f 88/33/4 84/32/4 87/5/4
f 88/33/4 87/5/4 89/7/4
f 85/82/11 84/87/11 88/86/11
f 85/82/11 88/86/11 91/81/11
f 89/86/6 87/87/6 86/82/6
f 89/86/6 86/82/6 90/81/6
g classname=brush12
s off
f 92/7/4 93/74/4 94/75/4
f 92/7/4 94/75/4 95/5/4
f 94/88/1 96/89/1 87/85/1
f 94/88/1 87/85/1 95/4/1
f 89/85/2 97/89/2 93/88/2
f 89/85/2 93/88/2 92/4/2
f 97/74/3 89/7/3 87/5/3
f 97/74/3 87/5/3 96/75/3
f 96/87/5 94/11/5 93/10/5
f 96/87/5 93/10/5 97/86/5
f 92/10/6 95/11/6 87/87/6
f 92/10/6 87/87/6 89/86/6
