# Wavefront OBJ
# Created by fragMOTION 1.3.7
# http://www.fragmosoft.com

mtllib leverbase.mtl
# 160 vertices
v -1.56369 -2.55278 1.01739
v 1.56369 -2.55278 1.01739
v 1.56369 -2.55278 0.615412
v -1.56369 -2.55278 0.615412
v 1.20893 -1.97363 0.213432
v -1.20893 -1.97363 0.213432
v 1.20893 1.97363 0.213432
v -1.20893 1.97363 0.213432
v 1.56369 2.55278 0.615412
v -1.56369 2.55278 0.615412
v 1.56369 2.55278 1.01739
v -1.56369 2.55278 1.01739
v -0.768826 -0.348434 0.152251
v -0.769039 -0.348434 -0.009206
v -0.948666 -0.348434 -0.008578
v -0.531334 0 -0.187951
v -0.531334 0.348434 -0.008578
v -0.712784 0.348434 -0.009206
v -0.711867 0 -0.191126
v -0.713542 0.348434 0.152251
v -0.77058 0 -0.191126
v -0.948666 0 -0.187951
v -0.531334 -0.348434 -0.008578
v -0.711937 -0.348434 -0.009206
v -0.711839 -0.348434 0.152251
v -0.767989 0.348434 -0.009206
v -0.948666 0.348434 -0.008578
v -0.768031 0.348434 0.152251
v -0.531334 0.348434 0.313708
v -0.531334 0 0.313708
v -0.531334 -0.348434 0.313708
v -0.711741 -0.348434 0.313708
v -0.768612 -0.348434 0.313708
v -0.948666 -0.348434 0.313708
v -0.948666 0 0.313708
v -0.948666 0.348434 0.313708
v -0.768073 0.348434 0.313708
v -0.7143 0.348434 0.313708
v 0.768826 -0.348434 0.152251
v 0.948666 -0.348434 -0.008578
v 0.769039 -0.348434 -0.009206
v 0.531334 0 -0.192147
v 0.711867 0 -0.191126
v 0.712784 0.348434 -0.009206
v 0.531334 0.348434 -0.008578
v 0.713542 0.348434 0.152251
v 0.948666 0 -0.192147
v 0.77058 0 -0.191126
v 0.531334 -0.348434 -0.008578
v 0.711937 -0.348434 -0.009206
v 0.711839 -0.348434 0.152251
v 0.948666 0.348434 -0.008578
v 0.767989 0.348434 -0.009206
v 0.768031 0.348434 0.152251
v 0.531334 0.348434 0.313708
v 0.531334 0 0.313708
v 0.531334 -0.348434 0.313708
v 0.711741 -0.348434 0.313708
v 0.768612 -0.348434 0.313708
v 0.948666 -0.348434 0.313708
v 0.948666 0 0.313708
v 0.948666 0.348434 0.313708
v 0.768073 0.348434 0.313708
v 0.7143 0.348434 0.313708
v -0.718976 1.30138 0.224451
v -0.678923 1.30138 0.224451
v -0.678923 1.30138 -0.020296
v -0.718976 1.30138 -0.020296
v -0.619448 1.35659 -0.261013
v -0.657721 1.35659 -0.269076
v -0.619448 1.57402 -0.261013
v -0.657721 1.57402 -0.269076
v -0.678923 1.62924 -0.020296
v -0.718976 1.62924 -0.020296
v -0.678923 1.62924 0.224451
v -0.718976 1.62924 0.224451
v -0.764509 1.30138 0.224451
v -0.764509 1.30138 -0.020296
v -0.804562 1.30138 -0.020296
v -0.804562 1.30138 0.224451
v -0.825764 1.35659 -0.269076
v -0.864037 1.35659 -0.261013
v -0.825764 1.57402 -0.269076
v -0.864037 1.57402 -0.261013
v -0.764509 1.62924 -0.020296
v -0.804562 1.62924 -0.020296
v -0.764509 1.62924 0.224451
v -0.804562 1.62924 0.224451
v 0.718976 1.30138 0.224451
v 0.718976 1.30138 -0.020296
v 0.678923 1.30138 -0.020296
v 0.678923 1.30138 0.224451
v 0.657721 1.35659 -0.269076
v 0.619448 1.35659 -0.261013
v 0.657721 1.57402 -0.269076
v 0.619448 1.57402 -0.261013
v 0.718976 1.62924 -0.020296
v 0.678923 1.62924 -0.020296
v 0.718976 1.62924 0.224451
v 0.678923 1.62924 0.224451
v 0.764509 1.30138 0.224451
v 0.804562 1.30138 0.224451
v 0.804562 1.30138 -0.020296
v 0.764509 1.30138 -0.020296
v 0.864037 1.35659 -0.261013
v 0.825764 1.35659 -0.269076
v 0.864037 1.57402 -0.261013
v 0.825764 1.57402 -0.269076
v 0.804562 1.62924 -0.020296
v 0.764509 1.62924 -0.020296
v 0.804562 1.62924 0.224451
v 0.764509 1.62924 0.224451
v -0.718976 -1.30138 0.224451
v -0.718976 -1.30138 -0.020296
v -0.678923 -1.30138 -0.020296
v -0.678923 -1.30138 0.224451
v -0.657721 -1.35659 -0.269076
v -0.619448 -1.35659 -0.261013
v -0.657721 -1.57403 -0.269076
v -0.619448 -1.57403 -0.261013
v -0.718976 -1.62924 -0.020296
v -0.678923 -1.62924 -0.020296
v -0.718976 -1.62924 0.224451
v -0.678923 -1.62924 0.224451
v -0.764509 -1.30138 0.224451
v -0.804562 -1.30138 0.224451
v -0.804562 -1.30138 -0.020296
v -0.764509 -1.30138 -0.020296
v -0.864037 -1.35659 -0.261013
v -0.825764 -1.35659 -0.269076
v -0.864037 -1.57403 -0.261013
v -0.825764 -1.57403 -0.269076
v -0.804562 -1.62924 -0.020296
v -0.764509 -1.62924 -0.020296
v -0.804562 -1.62924 0.224451
v -0.764509 -1.62924 0.224451
v 0.718976 -1.30138 0.224451
v 0.678923 -1.30138 0.224451
v 0.678923 -1.30138 -0.020296
v 0.718976 -1.30138 -0.020296
v 0.619448 -1.35659 -0.261013
v 0.657721 -1.35659 -0.269076
v 0.619448 -1.57403 -0.261013
v 0.657721 -1.57403 -0.269076
v 0.678923 -1.62924 -0.020296
v 0.718976 -1.62924 -0.020296
v 0.678923 -1.62924 0.224451
v 0.718976 -1.62924 0.224451
v 0.764509 -1.30138 0.224451
v 0.764509 -1.30138 -0.020296
v 0.804562 -1.30138 -0.020296
v 0.804562 -1.30138 0.224451
v 0.825764 -1.35659 -0.269076
v 0.864037 -1.35659 -0.261013
v 0.825764 -1.57403 -0.269076
v 0.864037 -1.57403 -0.261013
v 0.764509 -1.62924 -0.020296
v 0.804562 -1.62924 -0.020296
v 0.764509 -1.62924 0.224451
v 0.804562 -1.62924 0.224451
# 75 texture vertices
vt 0.347681 -0.678749
vt 0.698768 -0.678749
vt 0.698768 -0.641909
vt 0.347681 -0.641909
vt 0.668351 -0.585179
vt 0.387507 -0.585179
vt 0.668351 -0.138736
vt 0.387507 -0.138736
vt 0.698768 -0.072061
vt 0.347681 -0.072061
vt 0.698768 -0.026934
vt 0.347681 -0.026934
vt 0.743895 -0.643566
vt 0.743895 -0.070404
vt 0.302554 -0.070404
vt 0.302554 -0.643566
vt 0.430305 -0.921277
vt 0.430396 -0.852709
vt 0.507869 -0.850763
vt 0.181812 -0.785
vt 0.033243 -0.850765
vt 0.006187 -0.780293
vt 0.179239 -0.696118
vt 0.982881 -0.848108
vt 0.901882 -0.919317
vt 0.901618 -0.850749
vt 0.479728 -0.780977
vt 0.654655 -0.696124
vt 0.654654 -0.784157
vt 0.329033 -0.850555
vt 0.353675 -0.77939
vt 0.406146 -0.852709
vt 0.406104 -0.921278
vt 0.829787 -0.780582
vt 0.801444 -0.851318
vt 0.878742 -0.919515
vt 0.878174 -0.85095
vt 0.033499 -0.989848
vt 0.181473 -0.989847
vt 0.329447 -0.989846
vt 0.406063 -0.989846
vt 0.430215 -0.989846
vt 0.50668 -0.989846
vt 0.654654 -0.989846
vt 0.802623 -0.989291
vt 0.879311 -0.988081
vt 0.979846 -0.987222
vt 0.902146 -0.987886
vt 0.830873 -0.749584
vt 0.870643 -0.67274
vt 0.871193 -0.826141
vt 0.906185 -0.672613
vt 0.906734 -0.826014
vt 0.994317 -0.749283
vt 0.954271 -0.825984
vt 0.954271 -0.672582
vt 0.918729 -0.825984
vt 0.918729 -0.672582
vt 0.029913 -0.680913
vt 0.043253 -0.68089
vt 0.043069 -0.598817
vt 0.029545 -0.598841
vt 0.042889 -0.518241
vt 0.02988 -0.518405
vt 0.042796 -0.505407
vt 0.153415 -0.517552
vt 0.153349 -0.504717
vt 0.166464 -0.516816
vt 0.153158 -0.599046
vt 0.166636 -0.599469
vt 0.153048 -0.68112
vt 0.166432 -0.681542
vt 0.276381 -0.68199
vt 0.276571 -0.599917
vt 0.277116 -0.516492
# 102 normals
vn 0 -1 0
vn 0.59829 -0.6152 -0.513399
vn -0.658183 -0.512322 -0.551652
vn 0.209702 -0.318952 -0.924281
vn -0.337392 -0.128292 -0.932581
vn 0.337392 0.128292 -0.932581
vn -0.209702 0.318952 -0.924281
vn 0.658183 0.512322 -0.551652
vn -0.59829 0.6152 -0.513399
vn 0 1 0
vn 1 0 0
vn -1 0 0
vn -0.270494 -0.932391 -0.239751
vn 0.746533 0.113876 -0.655531
vn 0.708194 0.32315 -0.627722
vn 0.009332 0.460263 -0.887734
vn 0.0127 -0.169443 -0.985458
vn -0.009455 -0.460274 -0.887727
vn -0.012858 0.169443 -0.985456
vn -0.746585 -0.113872 -0.655473
vn 0.508563 -0.735737 -0.447276
vn 0.003082 -0.462821 -0.886446
vn -0.003081 0.462838 -0.886437
vn -0.4247 0.824709 -0.373477
vn 0.447214 -0.894427 0
vn -0.894427 -0.447214 0
vn -0.707107 0.707107 0
vn 0.999934 -0.001507 -0.011356
vn 0.999979 -0.001507 -0.006338
vn 0.99999 -0.001385 -0.004138
vn 0.894237 -0.001184 -0.447592
vn 0.44726 -0.00051 -0.894404
vn -0.999996 -0.001215 -0.002713
vn -0.999992 -0.001215 -0.003704
vn -0.999996 -0.001625 -0.002267
vn -0.893693 -0.001635 -0.448676
vn -0.447321 -0.001093 -0.894373
vn 0.269996 -0.932949 -0.238135
vn -0.743027 0.114893 -0.659326
vn 0.00257 -0.172753 -0.984962
vn 0.000976 0.464461 -0.885593
vn -0.708189 0.329084 -0.624638
vn -0.000995 -0.464458 -0.885595
vn 0.743015 -0.114893 -0.65934
vn -0.002622 0.172762 -0.98496
vn -0.504142 -0.739007 -0.446888
vn -0.003082 -0.462821 -0.886446
vn 0.420604 0.827089 -0.372849
vn 0.003081 0.462838 -0.886437
vn -0.447214 -0.894427 0
vn 0.894427 -0.447214 0
vn 0.707107 0.707107 0
vn -0.999934 -0.001507 -0.011356
vn -0.999979 -0.001507 -0.006338
vn -0.44726 -0.00051 -0.894404
vn -0.894237 -0.001184 -0.447592
vn 0.999996 -0.001215 -0.002713
vn 0.999996 -0.001625 -0.002267
vn 0.447321 -0.001093 -0.894373
vn 0.893693 -0.001635 -0.448676
vn 0.701828 -0.70972 0.061118
vn 0.014562 -0.989463 -0.144051
vn 0.472688 -0.75614 -0.45257
vn 0.043449 -0.977535 -0.206244
vn 0.206145 0 -0.978521
vn 0.775679 0.31563 -0.546535
vn -0.409462 0.863123 -0.295567
vn 0.71385 0.698859 -0.044883
vn -0.693509 0.701582 -0.163789
vn 0.447214 0.894427 0
vn -0.894427 0.447214 0
vn -0.996778 0 -0.080212
vn -0.971 0 -0.239081
vn -0.014562 -0.989463 -0.144051
vn -0.701828 -0.70972 0.061118
vn -0.043449 -0.977535 -0.206244
vn -0.472688 -0.75614 -0.45257
vn -0.206145 0 -0.978521
vn -0.775679 0.31563 -0.546535
vn 0.409462 0.863123 -0.295567
vn 0.693509 0.701582 -0.163789
vn -0.71385 0.698859 -0.044883
vn 0.894427 0.447214 0
vn -0.447214 0.894427 0
vn 0.996778 0 -0.080212
vn 0.971 0 -0.239081
vn 0.014562 0.989463 -0.144051
vn 0.701828 0.70972 0.061118
vn 0.043449 0.977535 -0.206244
vn 0.472688 0.75614 -0.45257
vn 0.775679 -0.315631 -0.546533
vn -0.409463 -0.863125 -0.29556
vn -0.693509 -0.701583 -0.163788
vn 0.713849 -0.69886 -0.044879
vn -0.701828 0.70972 0.061118
vn -0.014562 0.989463 -0.144051
vn -0.472688 0.75614 -0.45257
vn -0.043449 0.977535 -0.206244
vn -0.775679 -0.315631 -0.546533
vn 0.409463 -0.863125 -0.29556
vn -0.713849 -0.69886 -0.044879
vn 0.693509 -0.701583 -0.163787
usemtl Material01
g default
s off
f 1/1/1 3/3/2 2/2/1
f 1/1/1 4/4/3 3/3/2
f 4/4/3 5/5/4 3/3/2
f 4/4/3 6/6/5 5/5/4
f 6/6/5 7/7/6 5/5/4
f 6/6/5 8/8/7 7/7/6
f 8/8/7 9/9/8 7/7/6
f 8/8/7 10/10/9 9/9/8
f 10/10/9 11/11/10 9/9/8
f 10/10/9 12/12/10 11/11/10
f 2/13/11 9/9/8 11/14/11
f 2/13/11 3/3/2 9/9/8
f 3/3/2 7/7/6 9/9/8
f 3/3/2 5/5/4 7/7/6
f 12/15/12 4/4/3 1/16/12
f 12/15/12 10/10/9 4/4/3
f 10/10/9 6/6/5 4/4/3
f 10/10/9 8/8/7 6/6/5
f 13/17/1 15/19/13 14/18/1
f 16/20/14 18/22/16 17/21/15
f 16/20/14 19/23/17 18/22/16
f 17/24/10 18/26/10 20/25/10
f 14/27/18 22/29/20 21/28/19
f 14/27/18 15/19/13 22/29/20
f 23/30/21 19/23/17 16/20/14
f 23/30/21 24/31/22 19/23/17
f 23/30/21 25/33/1 24/32/1
f 21/28/19 27/35/24 26/34/23
f 21/28/19 22/29/20 27/35/24
f 28/36/10 26/37/10 27/35/24
f 29/38/11 16/20/14 17/21/15
f 29/38/11 30/39/11 16/20/14
f 30/39/11 23/30/21 16/20/14
f 30/39/11 31/40/25 23/30/21
f 31/40/25 25/33/1 23/30/21
f 31/40/25 32/41/1 25/33/1
f 33/42/1 15/19/13 13/17/1
f 33/42/1 34/43/26 15/19/13
f 34/43/26 22/29/20 15/19/13
f 34/43/26 35/44/12 22/29/20
f 35/44/12 27/35/24 22/29/20
f 35/44/12 36/45/27 27/35/24
f 37/46/10 27/35/24 36/45/27
f 37/46/10 28/36/10 27/35/24
f 17/24/10 38/48/10 29/47/10
f 17/24/10 20/25/10 38/48/10
f 21/49/28 26/51/30 14/50/29
f 26/51/30 13/52/31 14/50/29
f 26/51/30 28/53/32 13/52/31
f 25/33/1 33/42/1 13/17/1
f 25/33/1 32/41/1 33/42/1
f 28/36/10 38/48/10 20/25/10
f 28/36/10 37/46/10 38/48/10
f 19/54/33 24/56/35 18/55/34
f 24/56/35 20/57/36 18/55/34
f 24/56/35 25/58/37 20/57/36
f 28/53/32 25/58/37 13/52/31
f 28/53/32 20/57/36 25/58/37
f 39/17/1 41/18/1 40/19/38
f 42/20/39 44/22/41 43/23/40
f 42/20/39 45/21/42 44/22/41
f 45/24/10 46/25/10 44/26/10
f 41/27/43 47/29/44 40/19/38
f 41/27/43 48/28/45 47/29/44
f 49/30/46 43/23/40 50/31/47
f 49/30/46 42/20/39 43/23/40
f 49/30/46 50/32/1 51/33/1
f 48/28/45 52/35/48 47/29/44
f 48/28/45 53/34/49 52/35/48
f 54/36/10 52/35/48 53/37/10
f 55/38/12 42/20/39 56/39/12
f 55/38/12 45/21/42 42/20/39
f 56/39/12 49/30/46 57/40/50
f 56/39/12 42/20/39 49/30/46
f 57/40/50 51/33/1 58/41/1
f 57/40/50 49/30/46 51/33/1
f 59/42/1 40/19/38 60/43/51
f 59/42/1 39/17/1 40/19/38
f 60/43/51 47/29/44 61/44/11
f 60/43/51 40/19/38 47/29/44
f 61/44/11 52/35/48 62/45/52
f 61/44/11 47/29/44 52/35/48
f 63/46/10 52/35/48 54/36/10
f 63/46/10 62/45/52 52/35/48
f 45/24/10 64/48/10 46/25/10
f 45/24/10 55/47/10 64/48/10
f 48/49/53 41/50/54 53/51/34
f 53/51/34 39/52/56 54/53/55
f 53/51/34 41/50/54 39/52/56
f 51/33/1 59/42/1 58/41/1
f 51/33/1 39/17/1 59/42/1
f 54/36/10 64/48/10 63/46/10
f 54/36/10 46/25/10 64/48/10
f 43/54/57 44/55/30 50/56/58
f 50/56/58 46/57/60 51/58/59
f 50/56/58 44/55/30 46/57/60
f 54/53/55 51/58/59 46/57/60
f 54/53/55 39/52/56 51/58/59
f 65/59/1 67/61/61 66/60/51
f 65/59/1 68/62/62 67/61/61
f 68/62/62 69/63/63 67/61/61
f 68/62/62 70/64/64 69/63/63
f 70/65/65 71/66/66 69/63/63
f 70/65/65 72/67/65 71/66/66
f 72/68/67 73/69/68 71/66/66
f 72/68/67 74/70/69 73/69/68
f 74/70/69 75/71/70 73/69/68
f 74/70/69 76/72/71 75/71/70
f 66/60/51 73/69/68 75/71/70
f 66/60/51 67/61/61 73/69/68
f 67/61/61 71/66/66 73/69/68
f 67/61/61 69/63/63 71/66/66
f 76/72/71 68/74/72 65/73/12
f 76/72/71 74/70/69 68/74/72
f 74/70/69 70/75/73 68/74/72
f 74/70/69 72/68/67 70/75/73
f 77/59/1 79/61/75 78/62/74
f 77/59/1 80/60/26 79/61/75
f 78/62/74 82/63/77 81/64/76
f 78/62/74 79/61/75 82/63/77
f 81/65/78 84/66/79 83/67/78
f 81/65/78 82/63/77 84/66/79
f 83/68/80 86/69/82 85/70/81
f 83/68/80 84/66/79 86/69/82
f 85/70/81 88/71/84 87/72/83
f 85/70/81 86/69/82 88/71/84
f 80/60/26 86/69/82 79/61/75
f 80/60/26 88/71/84 86/69/82
f 79/61/75 84/66/79 82/63/77
f 79/61/75 86/69/82 84/66/79
f 87/72/83 78/74/85 85/70/81
f 87/72/83 77/73/11 78/74/85
f 85/70/81 81/75/86 83/68/80
f 85/70/81 78/74/85 81/75/86
f 89/59/1 91/61/75 90/62/74
f 89/59/1 92/60/26 91/61/75
f 90/62/74 94/63/77 93/64/76
f 90/62/74 91/61/75 94/63/77
f 93/65/78 96/66/79 95/67/78
f 93/65/78 94/63/77 96/66/79
f 95/68/80 98/69/82 97/70/81
f 95/68/80 96/66/79 98/69/82
f 97/70/81 100/71/84 99/72/83
f 97/70/81 98/69/82 100/71/84
f 92/60/26 98/69/82 91/61/75
f 92/60/26 100/71/84 98/69/82
f 91/61/75 96/66/79 94/63/77
f 91/61/75 98/69/82 96/66/79
f 99/72/83 90/74/85 97/70/81
f 99/72/83 89/73/11 90/74/85
f 97/70/81 93/75/86 95/68/80
f 97/70/81 90/74/85 93/75/86
f 101/59/1 103/61/61 102/60/51
f 101/59/1 104/62/62 103/61/61
f 104/62/62 105/63/63 103/61/61
f 104/62/62 106/64/64 105/63/63
f 106/65/65 107/66/66 105/63/63
f 106/65/65 108/67/65 107/66/66
f 108/68/67 109/69/68 107/66/66
f 108/68/67 110/70/69 109/69/68
f 110/70/69 111/71/70 109/69/68
f 110/70/69 112/72/71 111/71/70
f 102/60/51 109/69/68 111/71/70
f 102/60/51 103/61/61 109/69/68
f 103/61/61 107/66/66 109/69/68
f 103/61/61 105/63/63 107/66/66
f 112/72/71 104/74/72 101/73/12
f 112/72/71 110/70/69 104/74/72
f 110/70/69 106/75/73 104/74/72
f 110/70/69 108/68/67 106/75/73
f 113/59/10 115/61/88 114/62/87
f 113/59/10 116/60/83 115/61/88
f 114/62/87 118/63/90 117/64/89
f 114/62/87 115/61/88 118/63/90
f 117/65/65 120/66/91 119/67/65
f 117/65/65 118/63/90 120/66/91
f 119/68/92 122/69/94 121/70/93
f 119/68/92 120/66/91 122/69/94
f 121/70/93 124/71/25 123/72/26
f 121/70/93 122/69/94 124/71/25
f 116/60/83 122/69/94 115/61/88
f 116/60/83 124/71/25 122/69/94
f 115/61/88 120/66/91 118/63/90
f 115/61/88 122/69/94 120/66/91
f 123/72/26 114/74/72 121/70/93
f 123/72/26 113/73/12 114/74/72
f 121/70/93 117/75/73 119/68/92
f 121/70/93 114/74/72 117/75/73
f 125/59/10 127/61/95 126/60/71
f 125/59/10 128/62/96 127/61/95
f 128/62/96 129/63/97 127/61/95
f 128/62/96 130/64/98 129/63/97
f 130/65/78 131/66/99 129/63/97
f 130/65/78 132/67/78 131/66/99
f 132/68/100 133/69/101 131/66/99
f 132/68/100 134/70/102 133/69/101
f 134/70/102 135/71/50 133/69/101
f 134/70/102 136/72/51 135/71/50
f 126/60/71 133/69/101 135/71/50
f 126/60/71 127/61/95 133/69/101
f 127/61/95 131/66/99 133/69/101
f 127/61/95 129/63/97 131/66/99
f 136/72/51 128/74/85 125/73/11
f 136/72/51 134/70/102 128/74/85
f 134/70/102 130/75/86 128/74/85
f 134/70/102 132/68/100 130/75/86
f 137/59/10 139/61/95 138/60/71
f 137/59/10 140/62/96 139/61/95
f 140/62/96 141/63/97 139/61/95
f 140/62/96 142/64/98 141/63/97
f 142/65/78 143/66/99 141/63/97
f 142/65/78 144/67/78 143/66/99
f 144/68/100 145/69/101 143/66/99
f 144/68/100 146/70/102 145/69/101
f 146/70/102 147/71/50 145/69/101
f 146/70/102 148/72/51 147/71/50
f 138/60/71 145/69/101 147/71/50
f 138/60/71 139/61/95 145/69/101
f 139/61/95 143/66/99 145/69/101
f 139/61/95 141/63/97 143/66/99
f 148/72/51 140/74/85 137/73/11
f 148/72/51 146/70/102 140/74/85
f 146/70/102 142/75/86 140/74/85
f 146/70/102 144/68/100 142/75/86
f 149/59/10 151/61/88 150/62/87
f 149/59/10 152/60/83 151/61/88
f 150/62/87 154/63/90 153/64/89
f 150/62/87 151/61/88 154/63/90
f 153/65/65 156/66/91 155/67/65
f 153/65/65 154/63/90 156/66/91
f 155/68/92 158/69/94 157/70/93
f 155/68/92 156/66/91 158/69/94
f 157/70/93 160/71/25 159/72/26
f 157/70/93 158/69/94 160/71/25
f 152/60/83 158/69/94 151/61/88
f 152/60/83 160/71/25 158/69/94
f 151/61/88 156/66/91 154/63/90
f 151/61/88 158/69/94 156/66/91
f 159/72/26 150/74/72 157/70/93
f 159/72/26 149/73/12 150/74/72
f 157/70/93 153/75/73 155/68/92
f 157/70/93 150/74/72 153/75/73
