# Wavefront OBJ
# Created by fragMOTION 1.3.7
# http://www.fragmosoft.com

mtllib leverhandle.mtl
# 74 vertices
v -0.76306 0.173037 -0.003943
v -0.76306 -0.186311 1.83347
v -0.76306 -0.186311 -0.003943
v 0.76306 0.173037 -0.003943
v 0.76306 -0.186311 -0.003943
v 0.76306 -0.186311 1.83347
v -0.89434 -0.265317 1.76883
v 0.89434 -0.265317 1.76883
v 0.89434 0.252044 1.76883
v -0.89434 0.252044 1.76883
v 0.89434 0.252044 1.95309
v -0.89434 0.252044 1.95309
v -0.615074 -0.1413 1.95309
v -0.89434 -0.265317 1.95309
v -0.502851 -0.1413 1.95309
v 0.503026 -0.1413 1.95309
v 0.614899 -0.1413 1.95309
v 0.89434 -0.265317 1.95309
v -0.502851 0.125865 1.95309
v 0.503026 0.125865 1.95309
v 0.614899 0.125865 1.95309
v 0.507861 -0.1413 2.1873
v 0.507861 0.125865 2.1873
v -0.615074 0.125865 1.95309
v -0.508445 0.125865 2.18563
v -0.60948 0.125865 2.23447
v -0.508445 -0.1413 2.18563
v 0.610064 0.125865 2.2328
v 0.357501 0.125865 2.39305
v 0.610064 -0.1413 2.2328
v 0.357501 -0.1413 2.39305
v -0.60948 -0.1413 2.23447
v -0.357677 -0.1413 2.39305
v -0.357677 0.125865 2.39305
v 0.313882 -0.1413 2.3038
v 0.313882 0.125865 2.3038
v -0.313707 0.125865 2.3038
v -0.313707 -0.1413 2.3038
v -0.71855 -0.186311 -0.003943
v -0.76306 -0.133189 -0.10676
v -0.76306 0.117754 -0.10676
v -0.71855 -0.133189 -0.10676
v -0.71855 0.173037 1.83347
v -0.71855 0.173037 -0.003943
v -0.71855 -0.188473 1.83347
v -0.71855 -0.047528 -0.160835
v -0.76306 -0.047528 -0.160835
v -0.71855 0.117754 -0.10676
v 0.71855 0.173037 1.83347
v 0.71855 0.173037 -0.003943
v 0.76306 0.173037 1.83347
v 0.71855 -0.188473 1.83347
v 0.71855 -0.186311 -0.003943
v 0.76306 -0.133189 -0.10676
v 0.76306 0.117754 -0.10676
v 0.71855 -0.133189 -0.10676
v -0.76306 0.173037 1.83347
v 0.71855 -0.047528 -0.160835
v 0.76306 -0.047528 -0.160835
v 0.71855 0.117754 -0.10676
v 0.71855 0.032092 -0.160835
v 0.76306 0.032092 -0.160835
v -0.71855 0.032092 -0.160835
v -0.76306 0.032092 -0.160835
v 0.614899 -0.136976 1.95309
v 0.503026 -0.136976 1.95309
v -0.502851 -0.136976 1.95309
v 0.71855 -0.184148 1.83347
v -0.615074 -0.136976 1.95309
v 0.76306 -0.128865 -0.10676
v 0.71855 -0.128865 -0.10676
v -0.76306 -0.128865 -0.10676
v -0.71855 -0.128865 -0.10676
v -0.71855 -0.184148 1.83347
# 94 texture vertices
vt 0.776846 -0.518974
vt 0.87731 -0.008356
vt 0.87731 -0.518974
vt 0.261893 -0.150684
vt 0.040205 -0.150684
vt 0.040205 -0.215073
vt 0.261893 -0.215073
vt 0.261893 -0.04062
vt 0.040205 -0.04062
vt 0.040205 -0.063457
vt 0.261893 -0.063457
vt 0.227281 -0.112208
vt 0.261893 -0.127846
vt 0.213372 -0.112208
vt 0.088704 -0.112208
vt 0.074838 -0.112208
vt 0.040205 -0.127846
vt 0.017367 -0.127846
vt 0.017367 -0.063457
vt 0.28473 -0.063457
vt 0.213372 -0.079096
vt 0.088704 -0.079096
vt 0.074838 -0.079096
vt 0.239301 -0.224761
vt 0.22263 -0.224761
vt 0.22335 -0.259662
vt 0.022338 -0.419668
vt 0.063929 -0.467112
vt 0.063929 -0.419668
vt 0.056008 -0.3957
vt 0.072732 -0.3957
vt 0.071898 -0.361048
vt 0.056841 -0.353769
vt 0.273066 -0.467113
vt 0.231773 -0.419669
vt 0.231772 -0.467113
vt 0.020538 -0.290047
vt 0.0208 -0.329859
vt 0.05812 -0.329972
vt 0.22335 -0.360799
vt 0.238581 -0.354018
vt 0.200943 -0.330137
vt 0.239394 -0.330137
vt 0.239394 -0.290324
vt 0.200943 -0.290324
vt 0.071898 -0.259413
vt 0.056841 -0.266692
vt 0.094366 -0.290324
vt 0.058217 -0.290159
vt 0.094366 -0.330137
vt 0.093029 -0.419668
vt 0.093029 -0.467112
vt 0.204478 -0.467113
vt 0.204479 -0.419669
vt 0.194443 -0.343437
vt 0.100918 -0.277024
vt 0.28473 -0.127846
vt 0.889679 -0.518974
vt 0.87731 -0.547547
vt 0.792209 -0.547547
vt 0.861946 -0.547547
vt 0.889679 -0.547547
vt 0.990142 -0.008356
vt 0.990142 -0.518974
vt 0.889679 -0.008356
vt 0.889678 -0.571353
vt 0.877309 -0.571352
vt 0.974779 -0.547547
vt 0.905042 -0.547547
vt 0.764477 -0.008356
vt 0.764477 -0.518974
vt 0.776846 -0.008356
vt 0.227281 -0.079096
vt 0.056008 -0.22476
vt 0.072731 -0.224761
vt 0.239301 -0.3957
vt 0.22263 -0.3957
vt 0.281076 -0.330137
vt 0.022338 -0.467112
vt 0.273067 -0.419669
vt 0.281076 -0.290323
vt 0.238581 -0.266443
vt 0.100918 -0.343437
vt 0.194443 -0.277024
vt 0.889678 -0.593479
vt 0.877308 -0.593479
vt 0.877308 -0.617284
vt 0.764477 -0.547547
vt 0.776846 -0.547547
vt 0.950974 -0.562575
vt 0.889677 -0.617284
vt 0.838141 -0.562575
vt 0.928847 -0.562575
vt 0.816014 -0.562575
# 73 normals
vn -0.716666 0.659694 -0.22626
vn -1 0 0
vn -0.948683 -0.280945 -0.145154
vn 0.716666 0.659694 -0.22626
vn 0.948683 -0.280945 -0.145154
vn 1 0 0
vn -0.447214 0 -0.894427
vn 0.894427 0 -0.447214
vn 0.408248 0.408248 -0.816497
vn -0.666667 0.666667 -0.333333
vn 0.57735 0.57735 0.57735
vn -0.162221 0.162221 0.973329
vn -0.529922 -0.265013 0.805575
vn -0.371391 1e-006 0.928477
vn 0.217162 -0.43445 0.874125
vn 0.266237 -0.532553 0.803433
vn 0.316228 0 0.948683
vn 0.528944 0.264548 0.80637
vn -0.217319 0.43473 0.873946
vn 0.433525 0.216795 0.874675
vn -0.507567 -0.750275 -0.42363
vn -0.628841 0.750275 -0.204072
vn -0.331805 0.663741 0.670338
vn 0.509446 0.75018 -0.421539
vn -0.629236 0.745392 0.220122
vn 0.629705 -0.75018 -0.201748
vn 0.514617 0.745331 0.423852
vn 0.128521 0.719661 0.682328
vn 0.629919 -0.745331 0.218367
vn 0.257042 -0.719661 0.644995
vn -0.513227 -0.745392 0.425429
vn -0.127809 -0.719511 0.682619
vn -0.255617 0.719511 0.645727
vn -0.123327 -0.718595 -0.684406
vn -0.246654 0.718595 -0.650218
vn 0.124301 0.71879 -0.684025
vn 0.248602 -0.71879 -0.649259
vn 0.83205 -0.492811 -0.254617
vn -0.56683 -0.654875 -0.499842
vn -0.808412 0.393769 -0.437511
vn 0.718172 -0.468257 -0.514746
vn 0.707107 0.707107 0
vn 0.716666 0.68818 -0.11313
vn 0.326469 -0.174271 -0.929004
vn -0.568365 -0.303396 -0.764796
vn 0.717498 0.548961 -0.428764
vn -0.707107 0.707107 0
vn -0.716666 0.68818 -0.11313
vn 0.447214 0.894427 0
vn -0.83205 -0.492811 -0.254617
vn 0.56683 -0.654875 -0.499842
vn 0.808412 0.393769 -0.437511
vn -0.718172 -0.468257 -0.514746
vn -0.447214 0.894427 0
vn -0.326469 -0.174271 -0.929004
vn 0.568365 -0.303396 -0.764796
vn -0.717498 0.548961 -0.428764
vn -0.568364 0.303393 -0.764797
vn 0.326469 0.174269 -0.929004
vn 0.568364 0.303393 -0.764797
vn -0.326469 0.174269 -0.929004
vn 0 -0.894427 0.447214
vn 0 -1 0
vn 0 -0.242536 0.970142
vn 0 0 1
vn -0.02427 -0.999705 0.000588
vn -0.016658 -0.985811 -0.167028
vn -0.048526 -0.998821 0.001176
vn 0 -0.942306 -0.334752
vn 0 -0.872984 -0.48775
vn 0.016658 -0.985811 -0.167028
vn 0.02427 -0.999705 0.000588
vn 0.048526 -0.998821 0.001176
usemtl MatD3D01
g Mesh01
s off
f 1/1/1 3/3/3 2/2/2
f 4/1/4 6/2/6 5/3/5
f 7/4/7 9/6/9 8/5/8
f 7/4/7 10/7/10 9/6/9
f 10/8/10 11/10/11 9/9/9
f 10/8/10 12/11/12 11/10/11
f 12/11/12 14/13/14 13/12/13
f 14/13/14 15/14/15 13/12/13
f 14/13/14 16/15/13 15/14/15
f 14/13/14 17/16/16 16/15/13
f 14/13/14 18/17/17 17/16/16
f 8/18/8 9/19/9 11/10/11
f 14/13/14 12/11/12 10/20/10
f 15/14/15 20/22/19 19/21/18
f 15/14/15 16/15/13 20/22/19
f 21/23/20 18/17/17 11/10/11
f 21/23/20 17/16/16 18/17/17
f 17/24/16 22/26/21 16/25/13
f 16/27/13 22/29/21 23/28/22
f 24/30/23 25/32/24 19/31/18
f 24/30/23 26/33/25 25/32/24
f 19/34/18 25/36/24 27/35/26
f 13/37/13 26/39/25 24/38/23
f 23/40/22 29/42/28 28/41/27
f 28/43/27 31/45/30 30/44/29
f 28/43/27 29/42/28 31/45/30
f 27/46/26 33/48/32 32/47/31
f 32/49/31 34/50/33 26/39/25
f 32/49/31 33/48/32 34/50/33
f 35/51/34 37/53/36 36/52/35
f 35/51/34 38/54/37 37/53/36
f 36/55/35 34/50/33 29/42/28
f 31/45/30 33/48/32 38/56/37
f 12/11/12 21/23/20 11/10/11
f 12/11/12 20/22/19 21/23/20
f 12/11/12 19/21/18 20/22/19
f 7/57/7 14/13/14 10/20/10
f 39/58/38 3/3/3 40/59/39
f 41/60/40 40/61/39 3/3/3
f 42/62/41 39/58/38 40/59/39
f 43/63/42 45/65/6 44/64/43
f 46/66/44 42/62/41 47/67/45
f 48/68/46 39/58/38 42/69/41
f 49/70/47 51/72/49 50/71/48
f 52/65/2 50/64/48 53/58/50
f 39/58/38 44/64/43 45/65/6
f 29/42/28 34/50/33 33/48/32
f 29/42/28 33/48/32 31/45/30
f 6/2/6 4/1/4 51/72/49
f 24/73/23 19/21/18 12/11/12
f 24/73/23 12/11/12 13/12/13
f 13/74/13 15/75/15 32/47/31
f 13/37/13 32/49/31 26/39/25
f 21/76/20 20/77/19 28/41/27
f 21/78/20 28/43/27 30/44/29
f 20/79/19 16/27/13 23/28/22
f 20/77/19 23/40/22 28/41/27
f 15/80/15 19/34/18 27/35/26
f 15/75/15 27/46/26 32/47/31
f 8/18/8 11/10/11 18/17/17
f 17/81/16 21/78/20 30/44/29
f 17/24/16 30/82/29 22/26/21
f 53/58/50 54/59/51 5/3/5
f 55/60/52 5/3/5 54/61/51
f 56/62/53 54/59/51 53/58/50
f 57/72/54 1/1/1 2/2/2
f 49/63/47 50/64/48 52/65/2
f 58/66/55 59/67/56 56/62/53
f 60/68/57 56/69/53 53/58/50
f 25/32/24 26/33/25 37/83/36
f 25/36/24 37/53/36 38/54/37
f 22/26/21 30/82/29 35/84/34
f 22/29/21 35/51/34 36/52/35
f 27/35/26 25/36/24 38/54/37
f 27/46/26 38/56/37 33/48/32
f 23/28/22 22/29/21 36/52/35
f 23/40/22 36/55/35 29/42/28
f 37/83/36 26/33/25 34/50/33
f 37/83/36 34/50/33 36/55/35
f 35/84/34 30/82/29 31/45/30
f 35/84/34 31/45/30 38/56/37
f 4/1/4 5/3/5 55/60/52
f 61/85/58 55/87/52 62/86/59
f 60/68/57 53/58/50 50/64/48
f 60/88/57 4/1/4 55/89/52
f 48/68/46 42/69/41 63/90/60
f 41/87/40 63/85/60 64/86/61
f 48/91/46 63/85/60 41/87/40
f 1/1/1 41/60/40 3/3/3
f 48/88/46 41/89/40 1/1/1
f 48/68/46 44/64/43 39/58/38
f 60/91/57 55/87/52 61/85/58
f 60/68/57 61/90/58 56/69/53
f 47/67/45 42/62/41 40/59/39
f 47/92/45 40/61/39 41/60/40
f 50/71/48 51/72/49 4/1/4
f 50/71/48 4/1/4 60/88/57
f 44/71/43 48/88/46 1/1/1
f 44/71/43 1/1/1 57/72/54
f 54/59/51 56/62/53 59/67/56
f 54/61/51 59/92/56 55/60/52
f 63/90/60 42/69/41 46/93/44
f 63/85/60 46/66/44 64/86/61
f 47/92/45 41/60/40 64/94/61
f 47/67/45 64/86/61 46/66/44
f 43/70/42 44/71/43 57/72/54
f 59/67/56 58/66/55 62/86/59
f 59/92/56 62/94/59 55/60/52
f 61/85/58 62/86/59 58/66/55
f 61/90/58 58/93/55 56/69/53
g Duplicate01
s off
f 18/10/62 7/8/63 8/9/63
f 14/11/64 7/8/63 18/10/62
f 65/23/65 14/11/64 18/10/62
f 66/22/65 14/11/64 65/23/65
f 67/21/65 14/11/64 66/22/65
f 6/72/66 68/70/68 53/71/67
f 67/21/65 69/73/65 14/11/64
f 5/1/69 71/88/70 70/89/70
f 72/89/70 73/88/70 3/1/69
f 6/72/66 53/71/67 5/1/69
f 5/1/69 53/71/67 71/88/70
f 73/88/70 39/71/71 3/1/69
f 3/1/69 39/71/71 2/72/72
f 39/71/71 74/70/73 2/72/72
