# Wavefront OBJ
# Created by fragMOTION 1.3.7
# http://www.fragmosoft.com

mtllib lightgunbase.mtl
# 122 vertices
v -33.411 0 154.548
v -72 0 138.564
v -105.137 0 113.137
v -130.564 0 80
v -146.548 0 41.4111
v -152 0 2.95639e-005
v -146.548 0 -41.411
v -130.564 0 -80
v -105.137 0 -113.137
v -72 0 -138.564
v -33.4111 0 -154.548
v 7.99999 0 -160
v 49.411 0 -154.548
v 88 0 -138.564
v 121.137 0 -113.137
v 146.564 0 -80
v 162.548 0 -41.411
v 168 0 2.38419e-005
v 162.548 0 41.4111
v 146.564 0 80
v 121.137 0 113.137
v 88 0 138.564
v 49.411 0 154.548
v 8 0 160
v 8 48 160
v 49.411 48 154.548
v 88 48 138.564
v 121.137 48 113.137
v 146.564 48 80
v 162.548 48 41.4111
v 168 48 2.38419e-005
v 162.548 48 -41.411
v 146.564 48 -80
v 121.137 48 -113.137
v 88 48 -138.564
v 49.411 48 -154.548
v 7.99999 48 -160
v -33.4111 48 -154.548
v -72 48 -138.564
v -105.137 48 -113.137
v -130.564 48 -80
v -146.548 48 -41.411
v -152 48 2.95639e-005
v -146.548 48 41.4111
v -130.564 48 80
v -105.137 48 113.137
v -72 48 138.564
v -33.411 48 154.548
v -216 0 -32
v -216 0 32
v -216 16 32
v -216 16 -32
v 232 16 -32
v 232 16 32
v 232 0 32
v 232 0 -32
v 40 0 -224
v -24 0 -224
v -24 16 -224
v 40 16 -224
v 40 16 224
v -24 16 224
v -24 0 224
v 40 0 224
v 40 48 -64
v 40 48 64
v 40 112 64
v 40 112 -64
v 72 112 -64
v 72 112 64
v 72 48 64
v 72 48 -64
v -56 48 -64
v -56 48 64
v -56 112 64
v -56 112 -64
v -24 112 -64
v -24 112 64
v -24 48 64
v -24 48 -64
v 40 160 32
v 40 160 -32
v 72 160 -32
v 72 160 32
v -56 160 32
v -56 160 -32
v -24 160 -32
v -24 160 32
v 40 264.178 -188.288
v -24 264.178 -188.288
v -24 300.948 -157.434
v 40 300.948 -157.434
v 40 136.395 38.6731
v -24 136.395 38.6731
v -24 99.6247 7.81934
v 40 99.6247 7.81934
v -24 300.948 -157.434
v -24 304.315 -162.718
v -24 306.199 -168.694
v -24 306.472 -174.953
v -24 305.116 -181.07
v -24 302.223 -186.627
v -24 297.99 -191.246
v -24 292.706 -194.613
v -24 286.731 -196.497
v -24 280.472 -196.77
v -24 274.355 -195.414
v -24 268.798 -192.521
v -24 264.178 -188.288
v 40 300.948 -157.434
v 40 264.178 -188.288
v 40 268.798 -192.521
v 40 274.355 -195.414
v 40 280.472 -196.77
v 40 286.731 -196.497
v 40 292.706 -194.613
v 40 297.99 -191.246
v 40 302.223 -186.627
v 40 305.116 -181.07
v 40 306.472 -174.953
v 40 306.199 -168.694
v 40 304.315 -162.718
# 143 texture vertices
vt 0.301852 -0.0808809
vt 0.220971 -0.220971
vt 0.270633 -0.15625
vt 0.15625 -0.270633
vt 0.0808811 -0.301852
vt 3.5402e-009 -0.3125
vt -0.0808809 -0.301852
vt -0.15625 -0.270633
vt -0.220971 -0.220971
vt -0.270633 -0.15625
vt -0.301852 -0.080881
vt -0.3125 -2.70084e-008
vt -0.301852 0.0808809
vt -0.270633 0.15625
vt -0.220971 0.220971
vt -0.15625 0.270633
vt -0.0808809 0.301852
vt -1.50887e-008 0.3125
vt 0.080881 0.301852
vt 0.15625 0.270633
vt 0.220971 0.220971
vt 0.270633 0.15625
vt 0.301852 0.080881
vt 0.3125 0
vt 0 -0.25
vt 0.080881 -0.15625
vt 0.080881 -0.25
vt 0 -0.15625
vt 0.15625 -0.15625
vt 0.15625 -0.25
vt 0.220971 -0.15625
vt 0.220971 -0.25
vt -0.0808809 -0.15625
vt -0.0808809 -0.25
vt -0.15625 -0.15625
vt -0.15625 -0.25
vt -0.220971 -0.15625
vt -0.220971 -0.25
vt -0.0625 -0.25
vt 0.0625 -0.21875
vt 0.0625 -0.25
vt -0.0625 -0.21875
vt -0.0625 -0.4375
vt 0.0625 0.4375
vt -0.0625 0.4375
vt 0.0625 -0.4375
vt -0.4375 -0.25
vt 0.4375 -0.21875
vt -0.4375 -0.21875
vt 0.4375 -0.25
vt -0.4375 0.0625
vt 0.4375 -0.0625
vt 0.4375 0.0625
vt -0.4375 -0.0625
vt -0.125 -0.15625
vt 0.125 -0.03125
vt 0.125 -0.15625
vt -0.125 -0.03125
vt -0.125 0.0625
vt 0.125 0.125
vt -0.125 0.125
vt 0.125 0.0625
vt -0.3125 -0.3125
vt -0.1875 -0.0625
vt -0.3125 -0.0625
vt -0.1875 -0.3125
vt -0.125 -0.125
vt 0.125 -0.0625
vt -0.125 -0.0625
vt 0.125 -0.125
vt -0.324219 -0.3125
vt -0.199219 -0.0625
vt -0.324219 -0.0625
vt -0.199219 -0.3125
vt 0.0625 0.0625
vt -0.0625 0.0625
vt -0.304688 -0.125
vt -0.179688 0.125
vt -0.179688 -0.125
vt -0.304688 0.125
vt -0.1875 0.125
vt -0.3125 0.125
vt -0.324219 -0.125
vt -0.199219 0.125
vt -0.199219 -0.125
vt -0.324219 0.125
vt 0.142298 -0.132813
vt 0.248693 0.117187
vt 0.142298 0.117187
vt 0.248693 -0.132813
vt -0.113723 -0.0664062
vt -0.16692 0.0585938
vt -0.113723 0.0585938
vt -0.16692 -0.0664062
vt -0.159144 0.727688
vt -0.344329 -0.0383567
vt -0.159144 -0.0383567
vt -0.344329 0.727688
vt -0.344329 0.607165
vt -0.159144 -0.158879
vt -0.344329 -0.158879
vt -0.159144 0.607165
vt 0.265973 0.36775
vt 0.0163961 -0.0755335
vt 0.33779 0.307489
vt -0.0554205 -0.0152721
vt 0.348044 0.32948
vt 0.344365 0.317809
vt 0.348578 0.341705
vt 0.34593 0.353652
vt 0.340279 0.364506
vt 0.332012 0.373528
vt 0.321692 0.380103
vt 0.310021 0.383782
vt 0.297796 0.384316
vt 0.285849 0.381667
vt 0.274995 0.376017
vt -0.159144 0.627806
vt -0.344329 0.627806
vt -0.159144 0.651147
vt -0.344329 0.651147
vt -0.159144 0.675597
vt -0.344329 0.675597
vt -0.159144 0.699491
vt -0.344329 0.699491
vt -0.159144 0.721199
vt -0.344329 0.721199
vt -0.159144 0.739243
vt -0.344329 0.739243
vt -0.344329 0.656212
vt -0.159144 0.635571
vt -0.159144 0.656212
vt -0.344329 0.635571
vt -0.159144 0.61223
vt -0.344329 0.61223
vt -0.159144 0.58778
vt -0.344329 0.58778
vt -0.159144 0.563886
vt -0.344329 0.563886
vt -0.159144 0.542178
vt -0.344329 0.542178
vt -0.159144 0.524134
vt -0.344329 0.524134
# 48 normals
vn 0 -1 0
vn 0 1 0
vn 0.130526 0 0.991445
vn 0.382684 0 0.92388
vn 0.608761 0 0.793353
vn 0.793353 0 0.608761
vn 0.92388 0 0.382683
vn 0.991445 0 0.130526
vn 0.991445 0 -0.130526
vn 0.92388 0 -0.382683
vn 0.793353 0 -0.608761
vn 0.608761 0 -0.793353
vn 0.382684 0 -0.92388
vn 0.130526 0 -0.991445
vn -0.130526 0 -0.991445
vn -0.382684 0 -0.923879
vn -0.608762 0 -0.793353
vn -0.793353 0 -0.608761
vn -0.923879 0 -0.382684
vn -0.991445 0 -0.130526
vn -0.991445 0 0.130526
vn -0.92388 0 0.382684
vn -0.793353 0 0.608761
vn -0.608761 0 0.793354
vn -0.382683 0 0.92388
vn -0.130526 0 0.991445
vn -1 0 0
vn 1 0 0
vn 8.51495e-009 0 -1
vn -1.70299e-008 0 1
vn 0 0.5547 -0.83205
vn 0 0.5547 0.83205
vn 0 0.642788 -0.766044
vn 0 -0.642788 0.766044
vn 0 -0.766045 -0.642787
vn 0 0.766045 0.642788
vn 0 0.84339 0.537302
vn 0 0.953717 0.300706
vn 0 0.999048 0.0436191
vn 0 0.976296 -0.216439
vn 0 0.887011 -0.461748
vn 0 0.737279 -0.675589
vn 0 0.5373 -0.843391
vn 0 0.300705 -0.953717
vn 0 0.0436166 -0.999048
vn 0 -0.216438 -0.976296
vn 0 -0.461749 -0.88701
vn 0 -0.675587 -0.73728
usemtl metalpanels2
g classname=brush3
s off
f 65/63/29 68/65/29 69/64/29
f 65/63/29 69/64/29 72/66/29
f 71/66/30 70/64/30 67/65/30
f 71/66/30 67/65/30 66/63/30
g classname=brush4
s off
f 73/71/29 76/73/29 77/72/29
f 73/71/29 77/72/29 80/74/29
f 79/74/30 78/72/30 75/73/30
f 79/74/30 75/73/30 74/71/30
g classname=brush5
s off
f 81/77/2 84/79/2 83/78/2
f 81/77/2 83/78/2 82/80/2
f 68/65/31 82/82/31 83/81/31
f 68/65/31 83/81/31 69/64/31
f 70/64/32 84/81/32 81/82/32
f 70/64/32 81/82/32 67/65/32
g classname=brush6
s off
f 85/83/2 88/85/2 87/84/2
f 85/83/2 87/84/2 86/86/2
f 76/73/31 86/86/31 87/84/31
f 76/73/31 87/84/31 77/72/31
f 78/72/32 88/84/32 85/86/32
f 78/72/32 85/86/32 75/73/32
g classname=brush7
s off
f 89/87/33 90/89/33 91/88/33
f 89/87/33 91/88/33 92/90/33
f 89/95/35 96/97/35 95/96/35
f 89/95/35 95/96/35 90/98/35
f 91/99/36 94/101/36 93/100/36
f 91/99/36 93/100/36 92/102/36
g classname=brush8
s off
f 97/99/37 110/102/37 122/118/37
f 97/99/37 122/118/37 98/119/37
f 98/119/38 122/118/38 121/120/38
f 98/119/38 121/120/38 99/121/38
f 99/121/39 121/120/39 120/122/39
f 99/121/39 120/122/39 100/123/39
f 100/123/40 120/122/40 119/124/40
f 100/123/40 119/124/40 101/125/40
f 101/125/41 119/124/41 118/126/41
f 101/125/41 118/126/41 102/127/41
f 102/127/42 118/126/42 117/128/42
f 102/127/42 117/128/42 103/129/42
f 103/130/43 117/132/43 116/131/43
f 103/130/43 116/131/43 104/133/43
f 104/133/44 116/131/44 115/134/44
f 104/133/44 115/134/44 105/135/44
f 105/135/45 115/134/45 114/136/45
f 105/135/45 114/136/45 106/137/45
f 106/137/46 114/136/46 113/138/46
f 106/137/46 113/138/46 107/139/46
f 107/139/47 113/138/47 112/140/47
f 107/139/47 112/140/47 108/141/47
f 108/141/48 112/140/48 111/142/48
f 108/141/48 111/142/48 109/143/48
f 110/90/34 97/88/34 109/89/34
f 110/90/34 109/89/34 111/87/34
usemtl dirtymetal
g classname=brush
s off
f 1/1/1 2/3/1 3/2/1
f 1/1/1 3/2/1 4/4/1
f 1/1/1 4/4/1 5/5/1
f 1/1/1 5/5/1 6/6/1
f 1/1/1 6/6/1 7/7/1
f 1/1/1 7/7/1 8/8/1
f 1/1/1 8/8/1 9/9/1
f 1/1/1 9/9/1 10/10/1
f 1/1/1 10/10/1 11/11/1
f 1/1/1 11/11/1 12/12/1
f 1/1/1 12/12/1 13/13/1
f 1/1/1 13/13/1 14/14/1
f 1/1/1 14/14/1 15/15/1
f 1/1/1 15/15/1 16/16/1
f 1/1/1 16/16/1 17/17/1
f 1/1/1 17/17/1 18/18/1
f 1/1/1 18/18/1 19/19/1
f 1/1/1 19/19/1 20/20/1
f 1/1/1 20/20/1 21/21/1
f 1/1/1 21/21/1 22/22/1
f 1/1/1 22/22/1 23/23/1
f 1/1/1 23/23/1 24/24/1
f 25/24/2 26/23/2 27/22/2
f 25/24/2 27/22/2 28/21/2
f 25/24/2 28/21/2 29/20/2
f 25/24/2 29/20/2 30/19/2
f 25/24/2 30/19/2 31/18/2
f 25/24/2 31/18/2 32/17/2
f 25/24/2 32/17/2 33/16/2
f 25/24/2 33/16/2 34/15/2
f 25/24/2 34/15/2 35/14/2
f 25/24/2 35/14/2 36/13/2
f 25/24/2 36/13/2 37/12/2
f 25/24/2 37/12/2 38/11/2
f 25/24/2 38/11/2 39/10/2
f 25/24/2 39/10/2 40/9/2
f 25/24/2 40/9/2 41/8/2
f 25/24/2 41/8/2 42/7/2
f 25/24/2 42/7/2 43/6/2
f 25/24/2 43/6/2 44/5/2
f 25/24/2 44/5/2 45/4/2
f 25/24/2 45/4/2 46/2/2
f 25/24/2 46/2/2 47/3/2
f 25/24/2 47/3/2 48/1/2
f 24/25/3 23/27/3 26/26/3
f 24/25/3 26/26/3 25/28/3
f 23/27/4 22/30/4 27/29/4
f 23/27/4 27/29/4 26/26/4
f 22/30/5 21/32/5 28/31/5
f 22/30/5 28/31/5 27/29/5
f 21/32/6 20/30/6 29/29/6
f 21/32/6 29/29/6 28/31/6
f 20/30/7 19/27/7 30/26/7
f 20/30/7 30/26/7 29/29/7
f 19/27/8 18/25/8 31/28/8
f 19/27/8 31/28/8 30/26/8
f 18/25/9 17/34/9 32/33/9
f 18/25/9 32/33/9 31/28/9
f 17/34/10 16/36/10 33/35/10
f 17/34/10 33/35/10 32/33/10
f 16/36/11 15/38/11 34/37/11
f 16/36/11 34/37/11 33/35/11
f 15/32/12 14/30/12 35/29/12
f 15/32/12 35/29/12 34/31/12
f 14/30/13 13/27/13 36/26/13
f 14/30/13 36/26/13 35/29/13
f 13/27/14 12/25/14 37/28/14
f 13/27/14 37/28/14 36/26/14
f 12/25/15 11/34/15 38/33/15
f 12/25/15 38/33/15 37/28/15
f 11/34/16 10/36/16 39/35/16
f 11/34/16 39/35/16 38/33/16
f 10/36/17 9/38/17 40/37/17
f 10/36/17 40/37/17 39/35/17
f 9/38/18 8/36/18 41/35/18
f 9/38/18 41/35/18 40/37/18
f 8/36/19 7/34/19 42/33/19
f 8/36/19 42/33/19 41/35/19
f 7/34/20 6/25/20 43/28/20
f 7/34/20 43/28/20 42/33/20
f 6/25/21 5/27/21 44/26/21
f 6/25/21 44/26/21 43/28/21
f 5/27/22 4/30/22 45/29/22
f 5/27/22 45/29/22 44/26/22
f 4/30/23 3/32/23 46/31/23
f 4/30/23 46/31/23 45/29/23
f 3/38/24 2/36/24 47/35/24
f 3/38/24 47/35/24 46/37/24
f 2/36/25 1/34/25 48/33/25
f 2/36/25 48/33/25 47/35/25
f 1/34/26 24/25/26 25/28/26
f 1/34/26 25/28/26 48/33/26
g classname=brush1
s off
f 49/39/27 50/41/27 51/40/27
f 49/39/27 51/40/27 52/42/27
f 53/42/28 54/40/28 55/41/28
f 53/42/28 55/41/28 56/39/28
f 49/43/1 56/45/1 55/44/1
f 49/43/1 55/44/1 50/46/1
f 51/46/2 54/44/2 53/45/2
f 51/46/2 53/45/2 52/43/2
f 49/47/29 52/49/29 53/48/29
f 49/47/29 53/48/29 56/50/29
f 55/50/30 54/48/30 51/49/30
f 55/50/30 51/49/30 50/47/30
g classname=brush2
s off
f 57/41/29 58/39/29 59/42/29
f 57/41/29 59/42/29 60/40/29
f 61/40/30 62/42/30 63/39/30
f 61/40/30 63/39/30 64/41/30
f 57/51/1 64/53/1 63/52/1
f 57/51/1 63/52/1 58/54/1
f 59/54/2 62/52/2 61/53/2
f 59/54/2 61/53/2 60/51/2
f 57/47/28 60/49/28 61/48/28
f 57/47/28 61/48/28 64/50/28
f 63/50/27 62/48/27 59/49/27
f 63/50/27 59/49/27 58/47/27
g classname=brush3
s off
f 65/55/27 66/57/27 67/56/27
f 65/55/27 67/56/27 68/58/27
f 69/58/28 70/56/28 71/57/28
f 69/58/28 71/57/28 72/55/28
f 65/59/1 72/61/1 71/60/1
f 65/59/1 71/60/1 66/62/1
f 67/62/2 70/60/2 69/61/2
f 67/62/2 69/61/2 68/59/2
g classname=brush4
s off
f 73/55/27 74/57/27 75/56/27
f 73/55/27 75/56/27 76/58/27
f 77/58/28 78/56/28 79/57/28
f 77/58/28 79/57/28 80/55/28
f 73/67/1 80/69/1 79/68/1
f 73/67/1 79/68/1 74/70/1
f 75/70/2 78/68/2 77/69/2
f 75/70/2 77/69/2 76/67/2
g classname=brush5
s off
f 68/58/27 67/56/27 81/75/27
f 68/58/27 81/75/27 82/76/27
f 83/76/28 84/75/28 70/56/28
f 83/76/28 70/56/28 69/58/28
f 68/59/1 69/61/1 70/60/1
f 68/59/1 70/60/1 67/62/1
g classname=brush6
s off
f 76/58/27 75/56/27 85/75/27
f 76/58/27 85/75/27 86/76/27
f 87/76/28 88/75/28 78/56/28
f 87/76/28 78/56/28 77/58/28
f 76/67/1 77/69/1 78/68/1
f 76/67/1 78/68/1 75/70/1
g classname=brush7
s off
f 93/91/34 94/93/34 95/92/34
f 93/91/34 95/92/34 96/94/34
usemtl metal
g classname=brush7
s off
f 89/103/28 92/105/28 93/104/28
f 89/103/28 93/104/28 96/106/28
f 95/106/27 94/104/27 91/105/27
f 95/106/27 91/105/27 90/103/27
g classname=brush8
s off
f 97/105/27 98/108/27 99/107/27
f 97/105/27 99/107/27 100/109/27
f 97/105/27 100/109/27 101/110/27
f 97/105/27 101/110/27 102/111/27
f 97/105/27 102/111/27 103/112/27
f 97/105/27 103/112/27 104/113/27
f 97/105/27 104/113/27 105/114/27
f 97/105/27 105/114/27 106/115/27
f 97/105/27 106/115/27 107/116/27
f 97/105/27 107/116/27 108/117/27
f 97/105/27 108/117/27 109/103/27
f 110/105/28 111/103/28 112/117/28
f 110/105/28 112/117/28 113/116/28
f 110/105/28 113/116/28 114/115/28
f 110/105/28 114/115/28 115/114/28
f 110/105/28 115/114/28 116/113/28
f 110/105/28 116/113/28 117/112/28
f 110/105/28 117/112/28 118/111/28
f 110/105/28 118/111/28 119/110/28
f 110/105/28 119/110/28 120/109/28
f 110/105/28 120/109/28 121/107/28
f 110/105/28 121/107/28 122/108/28
