# Wavefront OBJ
# Created by fragMOTION 1.3.7
# http://www.fragmosoft.com

mtllib pocketdimension1.mtl
# 193 vertices
v 512 -32 -512
v -512 -32 -512
v -512 0 -512
v 512 0 -512
v 512 0 512
v -512 0 512
v -512 -32 512
v 512 -32 512
v 256 992 480
v 256 320 480
v -256 320 480
v -256 992 480
v 256 320 512
v 256 992 512
v -256 992 512
v -256 320 512
v 96 320 480
v 256 0 480
v 96 0 480
v 96 0 512
v 256 0 512
v 96 320 512
v -256 0 480
v -96 320 480
v -96 0 480
v -256 0 512
v -96 0 512
v -96 320 512
v 256 992 -512
v 256 320 -512
v -256 320 -512
v -256 992 -512
v 256 320 -480
v 256 992 -480
v -256 992 -480
v -256 320 -480
v 96 320 -512
v 256 0 -512
v 96 0 -512
v 96 0 -480
v 256 0 -480
v 96 320 -480
v -256 0 -512
v -96 320 -512
v -96 0 -512
v -256 0 -480
v -96 0 -480
v -96 320 -480
v -512 992 -256
v -512 0 -256
v -512 0 -96
v -512 992 -96
v -480 0 -256
v -480 992 -256
v -480 992 -96
v -480 0 -96
v -512 0 96
v -512 0 256
v -512 992 256
v -512 992 96
v -480 992 96
v -480 992 256
v -480 0 256
v -480 0 96
v -512 992 96
v -512 992 -96
v -512 320 -96
v -512 320 96
v -480 320 -96
v -480 992 -96
v -480 992 96
v -480 320 96
v 480 992 -256
v 480 320 -256
v 480 320 256
v 480 992 256
v 512 320 -256
v 512 992 -256
v 512 992 256
v 512 320 256
v 480 320 -96
v 480 320 -256
v 480 0 -256
v 480 0 -96
v 512 0 -96
v 512 0 -256
v 512 320 -256
v 512 320 -96
v 480 0 256
v 480 320 256
v 480 320 96
v 480 0 96
v 512 320 256
v 512 0 256
v 512 0 96
v 512 320 96
v 201.373 0 -480
v 272.485 0 -408.887
v 272.485 320 -408.887
v 201.373 320 -480
v 246.627 320 -480
v 295.113 320 -431.515
v 295.113 0 -431.515
v 246.627 0 -480
v -246.627 0 -480
v -294.475 0 -432.152
v -294.475 320 -432.152
v -246.627 320 -480
v -201.373 320 -480
v -271.848 320 -409.525
v -271.848 0 -409.525
v -201.373 0 -480
v -430.24 320 -296.388
v -430.24 0 -296.388
v -480 0 -246.627
v -480 320 -246.627
v -407.612 0 -273.76
v -407.612 320 -273.76
v -480 320 -201.373
v -480 0 -201.373
v -246.627 992 -480
v -480 320 -246.627
v -480 992 -246.627
v -201.373 992 -480
v -480 992 -201.373
v -480 0 246.627
v -431.515 0 295.113
v -431.515 320 295.113
v -480 320 246.627
v -480 320 201.372
v -408.887 320 272.485
v -408.887 0 272.485
v -480 0 201.372
v 201.373 320 -480
v 480 320 -201.373
v 480 992 -201.373
v 201.373 992 -480
v 246.627 992 -480
v 480 992 -246.627
v 480 320 -246.627
v 246.627 320 -480
v 408.25 0 -273.123
v 480 0 -201.373
v 480 320 -201.373
v 408.25 320 -273.123
v 430.877 320 -295.75
v 480 0 -246.627
v 430.877 0 -295.75
v 409.525 0 271.848
v 409.525 320 271.848
v 480 320 201.373
v 480 0 201.373
v 432.152 320 294.475
v 432.152 0 294.475
v 480 0 246.627
v 480 320 246.627
v -480 320 246.627
v -246.627 320 480
v -246.627 992 480
v -480 992 246.627
v -480 992 201.372
v -201.372 992 480
v -201.372 320 480
v -480 320 201.372
v 201.373 992 480
v 480 992 201.373
v 201.373 320 480
v 246.627 320 480
v 480 992 246.627
v 246.627 992 480
v 201.373 320 480
v 273.76 320 407.612
v 273.76 0 407.612
v 201.373 0 480
v 246.627 0 480
v 296.388 0 430.24
v 296.388 320 430.24
v -246.627 320 480
v -295.75 320 430.877
v -295.75 0 430.877
v -246.627 0 480
v -201.372 0 480
v -273.123 0 408.25
v -273.123 320 408.25
v -201.372 320 480
v 512 992 -512
v -512 992 -512
v -512 1024 -512
v 512 1024 -512
v 512 1024 512
v -512 1024 512
v -512 992 512
v 512 992 512
# 146 texture vertices
vt -1.42857 -0.0892857
vt 1.42857 0
vt 1.42857 -0.0892857
vt -1.42857 0
vt -1.42857 -1.42857
vt 1.42857 1.42857
vt -1.42857 1.42857
vt 1.42857 -1.42857
vt -0.714286 2.76786
vt 0.714286 0.892857
vt -0.714286 0.892857
vt 0.714286 2.76786
vt -0.714286 1.33929
vt 0.714286 1.42857
vt 0.714286 1.33929
vt -0.714286 1.42857
vt 1.33929 0.892857
vt 1.42857 2.76786
vt 1.33929 2.76786
vt 1.42857 0.892857
vt -0.267857 0.892857
vt -0.714286 0
vt -0.267857 0
vt -0.267857 1.33929
vt -0.267857 1.42857
vt 1.33929 0
vt 0.714286 0
vt 0.267857 0.892857
vt 0.267857 0
vt 0.267857 1.42857
vt 0.267857 1.33929
vt -0.714286 -1.42857
vt 0.714286 -1.33929
vt 0.714286 -1.42857
vt -0.714286 -1.33929
vt -1.42857 0.892857
vt -1.33929 2.76786
vt -1.42857 2.76786
vt -1.33929 0.892857
vt -0.267857 -1.42857
vt -0.267857 -1.33929
vt -1.33929 0
vt 0.267857 -1.33929
vt 0.267857 -1.42857
vt -0.267857 2.76786
vt 1.42857 -0.267857
vt 1.33929 -0.714286
vt 1.42857 -0.714286
vt 1.33929 -0.267857
vt 0.267857 2.76786
vt 1.33929 0.714286
vt 1.42857 0.267857
vt 1.42857 0.714286
vt 1.33929 0.267857
vt -1.33929 -0.714286
vt -1.42857 0.714286
vt -1.33929 0.714286
vt -1.42857 -0.714286
vt -1.33929 -0.267857
vt -1.42857 -0.267857
vt -1.42857 0.267857
vt -1.33929 0.267857
vt -0.561865 0
vt -0.760283 0.892857
vt -0.760283 0
vt -0.561865 0.892857
vt -1.204 0
vt -1.204 0.892857
vt -0.688134 -1.33929
vt -0.760283 -1.14087
vt -0.823417 -1.204
vt -0.561865 -1.33929
vt -0.823417 0.892857
vt -0.823417 0
vt -0.688134 0
vt -0.688134 0.892857
vt 0.688134 0
vt 0.821638 0.892857
vt 0.821638 0
vt 0.688134 0.892857
vt 0.561865 0.892857
vt 0.758504 0
vt 0.758504 0.892857
vt 0.561865 0
vt 0.561865 -1.33929
vt 0.821638 -1.20578
vt 0.758504 -1.14265
vt 0.688134 -1.33929
vt 1.20045 0.892857
vt 1.20045 0
vt 1.13731 0
vt 1.13731 0.892857
vt 1.33929 -0.688134
vt 1.13731 -0.76384
vt 1.20045 -0.826975
vt 1.33929 -0.561865
vt -0.688134 2.76786
vt 0.561865 2.76786
vt 0.688134 2.76786
vt -0.561866 2.76786
vt 1.204 0.892857
vt 1.204 0
vt 0.760282 0
vt 0.760282 0.892857
vt 1.33929 0.561865
vt 1.204 0.823417
vt 1.14087 0.760282
vt 1.33929 0.688134
vt 1.14087 0.892857
vt 1.14087 0
vt -1.33929 -0.561866
vt -1.33929 -0.688134
vt -1.13909 0
vt -1.13909 0.892857
vt -1.20222 0.892857
vt -1.20222 0
vt -1.13909 -0.762061
vt -1.20222 -0.825196
vt -1.14265 0
vt -1.14265 0.892857
vt -1.20578 0.892857
vt -1.20578 0
vt -1.20578 0.821638
vt -1.33929 0.561866
vt -1.14265 0.758504
vt -1.33929 0.688135
vt 0.688134 1.33929
vt 0.561865 1.33929
vt -0.561866 1.33929
vt -0.688135 1.33929
vt -0.826975 0.892857
vt -0.826975 0
vt -0.826975 1.20045
vt -0.76384 1.13731
vt -0.76384 0
vt -0.76384 0.892857
vt 0.825196 0
vt 0.825196 0.892857
vt 1.13909 0.892857
vt 1.13909 0
vt 0.762061 1.13909
vt 0.825196 1.20222
vt 0.762061 0.892857
vt 0.762061 0
vt 1.42857 2.85714
vt -1.42857 2.85714
# 10 normals
vn 0 0 -1
vn 0 0 1
vn 0 -1 0
vn 0 1 0
vn 1 0 0
vn -1 0 0
vn -0.707107 0 0.707107
vn 0.707107 0 -0.707107
vn 0.707107 0 0.707107
vn -0.707107 0 -0.707107
usemtl rockmoss1
g classname=brush
s off
f 1/1/1 2/3/1 3/2/1
f 1/1/1 3/2/1 4/4/1
f 5/4/2 6/2/2 7/3/2
f 5/4/2 7/3/2 8/1/2
f 1/5/3 8/7/3 7/6/3
f 1/5/3 7/6/3 2/8/3
f 3/8/4 6/6/4 5/7/4
f 3/8/4 5/7/4 4/5/4
f 1/1/5 4/4/5 5/2/5
f 1/1/5 5/2/5 8/3/5
f 7/3/6 6/2/6 3/4/6
f 7/3/6 3/4/6 2/1/6
g classname=brush1
s off
f 9/9/1 10/11/1 11/10/1
f 9/9/1 11/10/1 12/12/1
f 13/11/2 14/9/2 15/12/2
f 13/11/2 15/12/2 16/10/2
f 9/13/4 12/15/4 15/14/4
f 9/13/4 15/14/4 14/16/4
f 10/17/5 9/19/5 14/18/5
f 10/17/5 14/18/5 13/20/5
f 16/20/6 15/18/6 12/19/6
f 16/20/6 12/19/6 11/17/6
f 13/16/3 16/14/3 11/15/3
f 13/16/3 11/15/3 10/13/3
g classname=brush2
s off
f 17/21/1 10/11/1 18/22/1
f 17/21/1 18/22/1 19/23/1
f 20/23/2 21/22/2 13/11/2
f 20/23/2 13/11/2 22/21/2
f 19/24/3 18/13/3 21/16/3
f 19/24/3 21/16/3 20/25/3
f 13/20/5 21/2/5 18/26/5
f 13/20/5 18/26/5 10/17/5
f 22/25/4 13/16/4 10/13/4
f 22/25/4 10/13/4 17/24/4
f 22/20/6 17/17/6 19/26/6
f 22/20/6 19/26/6 20/2/6
g classname=brush3
s off
f 23/27/1 11/10/1 24/28/1
f 23/27/1 24/28/1 25/29/1
f 16/10/2 26/27/2 27/29/2
f 16/10/2 27/29/2 28/28/2
f 27/30/3 26/14/3 23/15/3
f 27/30/3 23/15/3 25/31/3
f 16/20/6 11/17/6 23/26/6
f 16/20/6 23/26/6 26/2/6
f 24/31/4 11/15/4 16/14/4
f 24/31/4 16/14/4 28/30/4
f 24/17/5 28/20/5 27/2/5
f 24/17/5 27/2/5 25/26/5
g classname=brush4
s off
f 29/9/1 30/11/1 31/10/1
f 29/9/1 31/10/1 32/12/1
f 33/11/2 34/9/2 35/12/2
f 33/11/2 35/12/2 36/10/2
f 29/32/4 32/34/4 35/33/4
f 29/32/4 35/33/4 34/35/4
f 30/36/5 29/38/5 34/37/5
f 30/36/5 34/37/5 33/39/5
f 36/39/6 35/37/6 32/38/6
f 36/39/6 32/38/6 31/36/6
f 33/35/3 36/33/3 31/34/3
f 33/35/3 31/34/3 30/32/3
g classname=brush5
s off
f 37/21/1 30/11/1 38/22/1
f 37/21/1 38/22/1 39/23/1
f 40/23/2 41/22/2 33/11/2
f 40/23/2 33/11/2 42/21/2
f 39/40/3 38/32/3 41/35/3
f 39/40/3 41/35/3 40/41/3
f 33/39/5 41/42/5 38/4/5
f 33/39/5 38/4/5 30/36/5
f 42/41/4 33/35/4 30/32/4
f 42/41/4 30/32/4 37/40/4
f 42/39/6 37/36/6 39/4/6
f 42/39/6 39/4/6 40/42/6
g classname=brush6
s off
f 43/27/1 31/10/1 44/28/1
f 43/27/1 44/28/1 45/29/1
f 36/10/2 46/27/2 47/29/2
f 36/10/2 47/29/2 48/28/2
f 47/43/3 46/33/3 43/34/3
f 47/43/3 43/34/3 45/44/3
f 36/39/6 31/36/6 43/4/6
f 36/39/6 43/4/6 46/42/6
f 44/44/4 31/34/4 36/33/4
f 44/44/4 36/33/4 48/43/4
f 44/36/5 48/39/5 47/42/5
f 44/36/5 47/42/5 45/4/5
g classname=brush7
s off
f 49/9/6 50/22/6 51/23/6
f 49/9/6 51/23/6 52/45/6
f 53/22/5 54/9/5 55/45/5
f 53/22/5 55/45/5 56/23/5
f 51/46/3 50/48/3 53/47/3
f 51/46/3 53/47/3 56/49/3
f 49/48/4 52/46/4 55/49/4
f 49/48/4 55/49/4 54/47/4
f 53/26/1 50/2/1 49/18/1
f 53/26/1 49/18/1 54/19/1
f 55/19/2 52/18/2 51/2/2
f 55/19/2 51/2/2 56/26/2
g classname=brush8
s off
f 57/29/6 58/27/6 59/12/6
f 57/29/6 59/12/6 60/50/6
f 61/50/5 62/12/5 63/27/5
f 61/50/5 63/27/5 64/29/5
f 63/51/3 58/53/3 57/52/3
f 63/51/3 57/52/3 64/54/3
f 60/52/4 59/53/4 62/51/4
f 60/52/4 62/51/4 61/54/4
f 59/18/2 58/2/2 63/26/2
f 59/18/2 63/26/2 62/19/2
f 60/18/1 61/19/1 64/26/1
f 60/18/1 64/26/1 57/2/1
g classname=brush9
s off
f 65/50/6 66/45/6 67/21/6
f 65/50/6 67/21/6 68/28/6
f 69/21/5 70/45/5 71/50/5
f 69/21/5 71/50/5 72/28/5
f 71/54/4 70/49/4 66/46/4
f 71/54/4 66/46/4 65/52/4
f 67/20/1 66/18/1 70/19/1
f 67/20/1 70/19/1 69/17/1
f 72/17/2 71/19/2 65/18/2
f 72/17/2 65/18/2 68/20/2
f 72/54/3 68/52/3 67/46/3
f 72/54/3 67/46/3 69/49/3
g classname=brush10
s off
f 73/9/6 74/11/6 75/10/6
f 73/9/6 75/10/6 76/12/6
f 77/11/5 78/9/5 79/12/5
f 77/11/5 79/12/5 80/10/5
f 73/55/4 76/57/4 79/56/4
f 73/55/4 79/56/4 78/58/4
f 74/39/1 73/37/1 78/38/1
f 74/39/1 78/38/1 77/36/1
f 80/36/2 79/38/2 76/37/2
f 80/36/2 76/37/2 75/39/2
f 74/55/3 77/58/3 80/56/3
f 74/55/3 80/56/3 75/57/3
g classname=brush11
s off
f 81/21/6 82/11/6 83/22/6
f 81/21/6 83/22/6 84/23/6
f 85/23/5 86/22/5 87/11/5
f 85/23/5 87/11/5 88/21/5
f 84/59/3 83/55/3 86/58/3
f 84/59/3 86/58/3 85/60/3
f 87/36/1 86/4/1 83/42/1
f 87/36/1 83/42/1 82/39/1
f 88/60/4 87/58/4 82/55/4
f 88/60/4 82/55/4 81/59/4
f 88/36/2 81/39/2 84/42/2
f 88/36/2 84/42/2 85/4/2
g classname=brush12
s off
f 89/27/6 90/10/6 91/28/6
f 89/27/6 91/28/6 92/29/6
f 93/10/5 94/27/5 95/29/5
f 93/10/5 95/29/5 96/28/5
f 95/61/3 94/56/3 89/57/3
f 95/61/3 89/57/3 92/62/3
f 93/36/2 90/39/2 89/42/2
f 93/36/2 89/42/2 94/4/2
f 90/57/4 93/56/4 96/61/4
f 90/57/4 96/61/4 91/62/4
f 91/39/1 96/36/1 95/4/1
f 91/39/1 95/4/1 92/42/1
g classname=brush13
s off
f 97/63/7 98/65/7 99/64/7
f 97/63/7 99/64/7 100/66/7
f 101/39/8 102/68/8 103/67/8
f 101/39/8 103/67/8 104/42/8
f 104/69/3 103/71/3 98/70/3
f 104/69/3 98/70/3 97/72/3
f 100/72/4 99/70/4 102/71/4
f 100/72/4 102/71/4 101/69/4
f 98/65/9 103/74/9 102/73/9
f 98/65/9 102/73/9 99/64/9
f 100/66/1 101/76/1 104/75/1
f 100/66/1 104/75/1 97/63/1
g classname=brush14
s off
f 105/77/10 106/79/10 107/78/10
f 105/77/10 107/78/10 108/80/10
f 109/81/9 110/83/9 111/82/9
f 109/81/9 111/82/9 112/84/9
f 112/85/3 111/87/3 106/86/3
f 112/85/3 106/86/3 105/88/3
f 108/88/4 107/86/4 110/87/4
f 108/88/4 110/87/4 109/85/4
f 106/79/7 111/82/7 110/83/7
f 106/79/7 110/83/7 107/78/7
f 108/80/1 109/81/1 112/84/1
f 108/80/1 112/84/1 105/77/1
g classname=brush15
s off
f 113/89/10 114/90/10 115/26/10
f 113/89/10 115/26/10 116/17/10
f 117/91/9 118/92/9 119/17/9
f 117/91/9 119/17/9 120/26/9
f 115/93/3 114/95/3 117/94/3
f 115/93/3 117/94/3 120/96/3
f 118/94/4 113/95/4 116/93/4
f 118/94/4 116/93/4 119/96/4
f 117/91/8 114/90/8 113/89/8
f 117/91/8 113/89/8 118/92/8
f 119/66/6 116/76/6 115/75/6
f 119/66/6 115/75/6 120/63/6
g classname=brush16
s off
f 121/37/10 108/39/10 122/76/10
f 121/37/10 122/76/10 123/97/10
f 109/81/9 124/98/9 125/19/9
f 109/81/9 125/19/9 119/17/9
f 125/96/4 124/85/4 121/88/4
f 125/96/4 121/88/4 123/93/4
f 108/88/3 109/85/3 119/96/3
f 108/88/3 119/96/3 122/93/3
f 109/81/1 108/80/1 121/99/1
f 109/81/1 121/99/1 124/98/1
f 125/100/6 123/97/6 122/76/6
f 125/100/6 122/76/6 119/66/6
g classname=brush17
s off
f 126/26/7 127/102/7 128/101/7
f 126/26/7 128/101/7 129/17/7
f 130/81/8 131/104/8 132/103/8
f 130/81/8 132/103/8 133/84/8
f 133/105/3 132/107/3 127/106/3
f 133/105/3 127/106/3 126/108/3
f 128/106/4 131/107/4 130/105/4
f 128/106/4 130/105/4 129/108/4
f 127/102/9 132/110/9 131/109/9
f 127/102/9 131/109/9 128/101/9
f 129/80/6 130/81/6 133/84/6
f 129/80/6 133/84/6 126/77/6
g classname=brush18
s off
f 134/66/7 135/39/7 136/37/7
f 134/66/7 136/37/7 137/100/7
f 138/37/8 139/97/8 140/76/8
f 138/37/8 140/76/8 141/39/8
f 138/69/4 137/72/4 136/111/4
f 138/69/4 136/111/4 139/112/4
f 141/69/3 140/112/3 135/111/3
f 141/69/3 135/111/3 134/72/3
f 134/66/1 137/100/1 138/97/1
f 134/66/1 138/97/1 141/76/1
f 139/97/5 136/100/5 135/66/5
f 139/97/5 135/66/5 140/76/5
g classname=brush19
s off
f 142/113/7 143/42/7 144/39/7
f 142/113/7 144/39/7 145/114/7
f 146/115/8 140/39/8 147/42/8
f 146/115/8 147/42/8 148/116/8
f 142/117/3 148/118/3 147/112/3
f 142/117/3 147/112/3 143/111/3
f 145/117/4 144/111/4 140/112/4
f 145/117/4 140/112/4 146/118/4
f 142/113/10 145/114/10 146/115/10
f 142/113/10 146/115/10 148/116/10
f 140/76/5 144/66/5 143/63/5
f 140/76/5 143/63/5 147/75/5
g classname=brush20
s off
f 149/119/10 150/120/10 151/39/10
f 149/119/10 151/39/10 152/42/10
f 153/121/9 154/122/9 155/42/9
f 153/121/9 155/42/9 156/39/9
f 154/123/3 149/125/3 152/124/3
f 154/123/3 152/124/3 155/126/3
f 150/125/4 153/123/4 156/126/4
f 150/125/4 156/126/4 151/124/4
f 154/122/7 153/121/7 150/120/7
f 154/122/7 150/120/7 149/119/7
f 151/81/5 156/80/5 155/77/5
f 151/81/5 155/77/5 152/84/5
g classname=brush21
s off
f 157/17/7 158/80/7 159/99/7
f 157/17/7 159/99/7 160/19/7
f 161/98/8 162/19/8 163/17/8
f 161/98/8 163/17/8 164/81/8
f 161/105/4 160/108/4 159/127/4
f 161/105/4 159/127/4 162/128/4
f 157/108/3 164/105/3 163/128/3
f 157/108/3 163/128/3 158/127/3
f 157/80/6 160/99/6 161/98/6
f 157/80/6 161/98/6 164/81/6
f 162/98/2 159/99/2 158/80/2
f 162/98/2 158/80/2 163/81/2
g classname=brush22
s off
f 165/19/10 166/98/10 151/81/10
f 165/19/10 151/81/10 167/17/10
f 168/76/9 156/39/9 169/37/9
f 168/76/9 169/37/9 170/97/9
f 169/126/4 166/124/4 165/129/4
f 169/126/4 165/129/4 170/130/4
f 167/129/3 151/124/3 156/126/3
f 167/129/3 156/126/3 168/130/3
f 151/81/5 166/98/5 169/99/5
f 151/81/5 169/99/5 156/80/5
f 170/97/2 165/100/2 167/66/2
f 170/97/2 167/66/2 168/76/2
g classname=brush23
s off
f 171/17/10 172/92/10 173/91/10
f 171/17/10 173/91/10 174/26/10
f 175/75/9 176/132/9 177/131/9
f 175/75/9 177/131/9 168/76/9
f 176/133/3 175/130/3 174/129/3
f 176/133/3 174/129/3 173/134/3
f 168/130/4 177/133/4 172/134/4
f 168/130/4 172/134/4 171/129/4
f 173/135/8 172/136/8 177/131/8
f 173/135/8 177/131/8 176/132/8
f 168/76/2 171/66/2 174/63/2
f 168/76/2 174/63/2 175/75/2
g classname=brush24
s off
f 178/80/7 179/138/7 180/137/7
f 178/80/7 180/137/7 181/77/7
f 182/26/8 183/140/8 184/139/8
f 182/26/8 184/139/8 185/17/8
f 183/141/3 182/128/3 181/127/3
f 183/141/3 181/127/3 180/142/3
f 184/141/4 179/142/4 178/127/4
f 184/141/4 178/127/4 185/128/4
f 180/137/10 179/138/10 184/143/10
f 180/137/10 184/143/10 183/144/10
f 185/81/2 178/80/2 181/77/2
f 185/81/2 181/77/2 182/84/2
g classname=brush25
s off
f 186/38/1 187/18/1 188/145/1
f 186/38/1 188/145/1 189/146/1
f 190/146/2 191/145/2 192/18/2
f 190/146/2 192/18/2 193/38/2
f 186/5/3 193/7/3 192/6/3
f 186/5/3 192/6/3 187/8/3
f 188/8/4 191/6/4 190/7/4
f 188/8/4 190/7/4 189/5/4
f 186/38/5 189/146/5 190/145/5
f 186/38/5 190/145/5 193/18/5
f 192/18/6 191/145/6 188/146/6
f 192/18/6 188/146/6 187/38/6
